M48
; DRILL file {KiCad 6.0.11-2627ca5db0~126~ubuntu20.04.1} date Sat 01 Jul 2023 01:06:47 PM EDT
; FORMAT={-:-/ absolute / metric / decimal}
; #@! TF.CreationDate,2023-07-01T13:06:47-04:00
; #@! TF.GenerationSoftware,Kicad,Pcbnew,6.0.11-2627ca5db0~126~ubuntu20.04.1
; #@! TF.FileFunction,Plated,1,2,PTH
FMAT,2
METRIC
; #@! TA.AperFunction,Plated,PTH,ViaDrill
T1C0.400
; #@! TA.AperFunction,Plated,PTH,ComponentDrill
T2C0.650
; #@! TA.AperFunction,Plated,PTH,ComponentDrill
T3C0.800
; #@! TA.AperFunction,Plated,PTH,ComponentDrill
T4C1.000
; #@! TA.AperFunction,Plated,PTH,ComponentDrill
T5C1.100
; #@! TA.AperFunction,Plated,PTH,ViaDrill
T6C3.000
%
G90
G05
T1
X138.0Y-102.0
X141.0Y-98.0
X143.25Y-92.5
X153.0Y-85.0
T2
X146.23Y-114.17
X146.23Y-115.44
X146.23Y-116.71
X146.23Y-117.98
X146.23Y-119.25
X146.23Y-120.52
X146.23Y-121.79
X147.5Y-114.17
X147.5Y-115.44
X147.5Y-116.71
X147.5Y-117.98
X147.5Y-119.25
X147.5Y-120.52
X147.5Y-121.79
T3
X138.0Y-63.44
X138.0Y-71.06
X144.0Y-63.44
X144.0Y-71.06
X150.0Y-63.19
X150.0Y-70.81
X157.0Y-63.19
X157.0Y-70.81
T4
X112.0Y-106.76
X112.0Y-109.3
X112.0Y-111.84
X112.0Y-114.38
X112.0Y-116.92
X112.0Y-119.46
X112.0Y-122.0
X119.0Y-66.46
X119.0Y-69.0
X141.5Y-54.71
X141.5Y-57.25
X144.04Y-54.71
X144.04Y-57.25
X146.58Y-54.71
X146.58Y-57.25
X149.12Y-54.71
X149.12Y-57.25
X151.66Y-54.71
X151.66Y-57.25
X173.0Y-66.0
X173.0Y-68.54
X182.0Y-106.76
X182.0Y-109.3
X182.0Y-111.84
X182.0Y-114.38
X182.0Y-116.92
X182.0Y-119.46
X182.0Y-122.0
T5
X128.75Y-79.0
X128.75Y-85.5
X133.25Y-79.0
X133.25Y-85.5
X145.25Y-79.0
X145.25Y-85.5
X149.75Y-79.0
X149.75Y-85.5
X162.75Y-79.0
X162.75Y-85.5
X167.25Y-79.0
X167.25Y-85.5
T6
X128.0Y-96.0
X128.0Y-136.0
X168.0Y-96.0
X168.0Y-136.0
T0
M30
