%TF.GenerationSoftware,KiCad,Pcbnew,6.0.11-2627ca5db0~126~ubuntu20.04.1*%
%TF.CreationDate,2023-07-01T13:06:48-04:00*%
%TF.ProjectId,MoistureSensorBreakout,4d6f6973-7475-4726-9553-656e736f7242,rev?*%
%TF.SameCoordinates,Original*%
%TF.FileFunction,Drillmap*%
%TF.FilePolarity,Positive*%
%FSLAX45Y45*%
G04 Gerber Fmt 4.5, Leading zero omitted, Abs format (unit mm)*
G04 Created by KiCad (PCBNEW 6.0.11-2627ca5db0~126~ubuntu20.04.1) date 2023-07-01 13:06:48*
%MOMM*%
%LPD*%
G01*
G04 APERTURE LIST*
%ADD10C,0.150000*%
%ADD11C,0.200000*%
%ADD12C,0.040000*%
%ADD13C,0.065000*%
%ADD14C,0.080000*%
%ADD15C,0.100000*%
%ADD16C,0.110000*%
%ADD17C,0.300000*%
G04 APERTURE END LIST*
D10*
X10900000Y-4825000D02*
X18500000Y-4825000D01*
X18500000Y-4825000D02*
X18500000Y-14025000D01*
X18500000Y-14025000D02*
X10900000Y-14025000D01*
X10900000Y-14025000D02*
X10900000Y-4825000D01*
D11*
D12*
X13780000Y-10180000D02*
X13820000Y-10220000D01*
X13820000Y-10180000D02*
X13780000Y-10220000D01*
X14080000Y-9780000D02*
X14120000Y-9820000D01*
X14120000Y-9780000D02*
X14080000Y-9820000D01*
X14305000Y-9230000D02*
X14345000Y-9270000D01*
X14345000Y-9230000D02*
X14305000Y-9270000D01*
X15280000Y-8480000D02*
X15320000Y-8520000D01*
X15320000Y-8480000D02*
X15280000Y-8520000D01*
D13*
X14655500Y-11417000D02*
G75*
G03*
X14655500Y-11417000I-32500J0D01*
G01*
X14655500Y-11544000D02*
G75*
G03*
X14655500Y-11544000I-32500J0D01*
G01*
X14655500Y-11671000D02*
G75*
G03*
X14655500Y-11671000I-32500J0D01*
G01*
X14655500Y-11798000D02*
G75*
G03*
X14655500Y-11798000I-32500J0D01*
G01*
X14655500Y-11925000D02*
G75*
G03*
X14655500Y-11925000I-32500J0D01*
G01*
X14655500Y-12052000D02*
G75*
G03*
X14655500Y-12052000I-32500J0D01*
G01*
X14655500Y-12179000D02*
G75*
G03*
X14655500Y-12179000I-32500J0D01*
G01*
X14782500Y-11417000D02*
G75*
G03*
X14782500Y-11417000I-32500J0D01*
G01*
X14782500Y-11544000D02*
G75*
G03*
X14782500Y-11544000I-32500J0D01*
G01*
X14782500Y-11671000D02*
G75*
G03*
X14782500Y-11671000I-32500J0D01*
G01*
X14782500Y-11798000D02*
G75*
G03*
X14782500Y-11798000I-32500J0D01*
G01*
X14782500Y-11925000D02*
G75*
G03*
X14782500Y-11925000I-32500J0D01*
G01*
X14782500Y-12052000D02*
G75*
G03*
X14782500Y-12052000I-32500J0D01*
G01*
X14782500Y-12179000D02*
G75*
G03*
X14782500Y-12179000I-32500J0D01*
G01*
D14*
X13800000Y-6304000D02*
X13800000Y-6384000D01*
X13760000Y-6344000D02*
X13840000Y-6344000D01*
X13800000Y-7066000D02*
X13800000Y-7146000D01*
X13760000Y-7106000D02*
X13840000Y-7106000D01*
X14400000Y-6304000D02*
X14400000Y-6384000D01*
X14360000Y-6344000D02*
X14440000Y-6344000D01*
X14400000Y-7066000D02*
X14400000Y-7146000D01*
X14360000Y-7106000D02*
X14440000Y-7106000D01*
X15000000Y-6279000D02*
X15000000Y-6359000D01*
X14960000Y-6319000D02*
X15040000Y-6319000D01*
X15000000Y-7041000D02*
X15000000Y-7121000D01*
X14960000Y-7081000D02*
X15040000Y-7081000D01*
X15700000Y-6279000D02*
X15700000Y-6359000D01*
X15660000Y-6319000D02*
X15740000Y-6319000D01*
X15700000Y-7041000D02*
X15700000Y-7121000D01*
X15660000Y-7081000D02*
X15740000Y-7081000D01*
D15*
X11235356Y-10711356D02*
X11235356Y-10640644D01*
X11164644Y-10640644D01*
X11164644Y-10711356D01*
X11235356Y-10711356D01*
X11235356Y-10965356D02*
X11235356Y-10894644D01*
X11164644Y-10894644D01*
X11164644Y-10965356D01*
X11235356Y-10965356D01*
X11235356Y-11219356D02*
X11235356Y-11148644D01*
X11164644Y-11148644D01*
X11164644Y-11219356D01*
X11235356Y-11219356D01*
X11235356Y-11473356D02*
X11235356Y-11402644D01*
X11164644Y-11402644D01*
X11164644Y-11473356D01*
X11235356Y-11473356D01*
X11235356Y-11727356D02*
X11235356Y-11656644D01*
X11164644Y-11656644D01*
X11164644Y-11727356D01*
X11235356Y-11727356D01*
X11235356Y-11981356D02*
X11235356Y-11910644D01*
X11164644Y-11910644D01*
X11164644Y-11981356D01*
X11235356Y-11981356D01*
X11235356Y-12235356D02*
X11235356Y-12164644D01*
X11164644Y-12164644D01*
X11164644Y-12235356D01*
X11235356Y-12235356D01*
X11935356Y-6681356D02*
X11935356Y-6610644D01*
X11864644Y-6610644D01*
X11864644Y-6681356D01*
X11935356Y-6681356D01*
X11935356Y-6935356D02*
X11935356Y-6864644D01*
X11864644Y-6864644D01*
X11864644Y-6935356D01*
X11935356Y-6935356D01*
X14185356Y-5506356D02*
X14185356Y-5435644D01*
X14114644Y-5435644D01*
X14114644Y-5506356D01*
X14185356Y-5506356D01*
X14185356Y-5760356D02*
X14185356Y-5689644D01*
X14114644Y-5689644D01*
X14114644Y-5760356D01*
X14185356Y-5760356D01*
X14439356Y-5506356D02*
X14439356Y-5435644D01*
X14368644Y-5435644D01*
X14368644Y-5506356D01*
X14439356Y-5506356D01*
X14439356Y-5760356D02*
X14439356Y-5689644D01*
X14368644Y-5689644D01*
X14368644Y-5760356D01*
X14439356Y-5760356D01*
X14693356Y-5506356D02*
X14693356Y-5435644D01*
X14622644Y-5435644D01*
X14622644Y-5506356D01*
X14693356Y-5506356D01*
X14693356Y-5760356D02*
X14693356Y-5689644D01*
X14622644Y-5689644D01*
X14622644Y-5760356D01*
X14693356Y-5760356D01*
X14947356Y-5506356D02*
X14947356Y-5435644D01*
X14876644Y-5435644D01*
X14876644Y-5506356D01*
X14947356Y-5506356D01*
X14947356Y-5760356D02*
X14947356Y-5689644D01*
X14876644Y-5689644D01*
X14876644Y-5760356D01*
X14947356Y-5760356D01*
X15201356Y-5506356D02*
X15201356Y-5435644D01*
X15130644Y-5435644D01*
X15130644Y-5506356D01*
X15201356Y-5506356D01*
X15201356Y-5760356D02*
X15201356Y-5689644D01*
X15130644Y-5689644D01*
X15130644Y-5760356D01*
X15201356Y-5760356D01*
X17335356Y-6635356D02*
X17335356Y-6564644D01*
X17264644Y-6564644D01*
X17264644Y-6635356D01*
X17335356Y-6635356D01*
X17335356Y-6889356D02*
X17335356Y-6818644D01*
X17264644Y-6818644D01*
X17264644Y-6889356D01*
X17335356Y-6889356D01*
X18235356Y-10711356D02*
X18235356Y-10640644D01*
X18164644Y-10640644D01*
X18164644Y-10711356D01*
X18235356Y-10711356D01*
X18235356Y-10965356D02*
X18235356Y-10894644D01*
X18164644Y-10894644D01*
X18164644Y-10965356D01*
X18235356Y-10965356D01*
X18235356Y-11219356D02*
X18235356Y-11148644D01*
X18164644Y-11148644D01*
X18164644Y-11219356D01*
X18235356Y-11219356D01*
X18235356Y-11473356D02*
X18235356Y-11402644D01*
X18164644Y-11402644D01*
X18164644Y-11473356D01*
X18235356Y-11473356D01*
X18235356Y-11727356D02*
X18235356Y-11656644D01*
X18164644Y-11656644D01*
X18164644Y-11727356D01*
X18235356Y-11727356D01*
X18235356Y-11981356D02*
X18235356Y-11910644D01*
X18164644Y-11910644D01*
X18164644Y-11981356D01*
X18235356Y-11981356D01*
X18235356Y-12235356D02*
X18235356Y-12164644D01*
X18164644Y-12164644D01*
X18164644Y-12235356D01*
X18235356Y-12235356D01*
D16*
X12875000Y-7955000D02*
X12930000Y-7900000D01*
X12875000Y-7845000D01*
X12820000Y-7900000D01*
X12875000Y-7955000D01*
X12875000Y-8605000D02*
X12930000Y-8550000D01*
X12875000Y-8495000D01*
X12820000Y-8550000D01*
X12875000Y-8605000D01*
X13325000Y-7955000D02*
X13380000Y-7900000D01*
X13325000Y-7845000D01*
X13270000Y-7900000D01*
X13325000Y-7955000D01*
X13325000Y-8605000D02*
X13380000Y-8550000D01*
X13325000Y-8495000D01*
X13270000Y-8550000D01*
X13325000Y-8605000D01*
X14525000Y-7955000D02*
X14580000Y-7900000D01*
X14525000Y-7845000D01*
X14470000Y-7900000D01*
X14525000Y-7955000D01*
X14525000Y-8605000D02*
X14580000Y-8550000D01*
X14525000Y-8495000D01*
X14470000Y-8550000D01*
X14525000Y-8605000D01*
X14975000Y-7955000D02*
X15030000Y-7900000D01*
X14975000Y-7845000D01*
X14920000Y-7900000D01*
X14975000Y-7955000D01*
X14975000Y-8605000D02*
X15030000Y-8550000D01*
X14975000Y-8495000D01*
X14920000Y-8550000D01*
X14975000Y-8605000D01*
X16275000Y-7955000D02*
X16330000Y-7900000D01*
X16275000Y-7845000D01*
X16220000Y-7900000D01*
X16275000Y-7955000D01*
X16275000Y-8605000D02*
X16330000Y-8550000D01*
X16275000Y-8495000D01*
X16220000Y-8550000D01*
X16275000Y-8605000D01*
X16725000Y-7955000D02*
X16780000Y-7900000D01*
X16725000Y-7845000D01*
X16670000Y-7900000D01*
X16725000Y-7955000D01*
X16725000Y-8605000D02*
X16780000Y-8550000D01*
X16725000Y-8495000D01*
X16670000Y-8550000D01*
X16725000Y-8605000D01*
D17*
X12650000Y-9450000D02*
X12950000Y-9750000D01*
X12950000Y-9450000D02*
X12650000Y-9750000D01*
X12950000Y-9600000D02*
G75*
G03*
X12950000Y-9600000I-150000J0D01*
G01*
X12650000Y-13450000D02*
X12950000Y-13750000D01*
X12950000Y-13450000D02*
X12650000Y-13750000D01*
X12950000Y-13600000D02*
G75*
G03*
X12950000Y-13600000I-150000J0D01*
G01*
X16650000Y-9450000D02*
X16950000Y-9750000D01*
X16950000Y-9450000D02*
X16650000Y-9750000D01*
X16950000Y-9600000D02*
G75*
G03*
X16950000Y-9600000I-150000J0D01*
G01*
X16650000Y-13450000D02*
X16950000Y-13750000D01*
X16950000Y-13450000D02*
X16650000Y-13750000D01*
X16950000Y-13600000D02*
G75*
G03*
X16950000Y-13600000I-150000J0D01*
G01*
D11*
X11150119Y-14342976D02*
X11150119Y-14142976D01*
X11197738Y-14142976D01*
X11226309Y-14152500D01*
X11245357Y-14171548D01*
X11254881Y-14190595D01*
X11264405Y-14228690D01*
X11264405Y-14257262D01*
X11254881Y-14295357D01*
X11245357Y-14314405D01*
X11226309Y-14333452D01*
X11197738Y-14342976D01*
X11150119Y-14342976D01*
X11350119Y-14342976D02*
X11350119Y-14209643D01*
X11350119Y-14247738D02*
X11359643Y-14228690D01*
X11369167Y-14219167D01*
X11388214Y-14209643D01*
X11407262Y-14209643D01*
X11473928Y-14342976D02*
X11473928Y-14209643D01*
X11473928Y-14142976D02*
X11464405Y-14152500D01*
X11473928Y-14162024D01*
X11483452Y-14152500D01*
X11473928Y-14142976D01*
X11473928Y-14162024D01*
X11597738Y-14342976D02*
X11578690Y-14333452D01*
X11569167Y-14314405D01*
X11569167Y-14142976D01*
X11702500Y-14342976D02*
X11683452Y-14333452D01*
X11673928Y-14314405D01*
X11673928Y-14142976D01*
X11931071Y-14342976D02*
X11931071Y-14142976D01*
X11997738Y-14285833D01*
X12064405Y-14142976D01*
X12064405Y-14342976D01*
X12245357Y-14342976D02*
X12245357Y-14238214D01*
X12235833Y-14219167D01*
X12216786Y-14209643D01*
X12178690Y-14209643D01*
X12159643Y-14219167D01*
X12245357Y-14333452D02*
X12226309Y-14342976D01*
X12178690Y-14342976D01*
X12159643Y-14333452D01*
X12150119Y-14314405D01*
X12150119Y-14295357D01*
X12159643Y-14276309D01*
X12178690Y-14266786D01*
X12226309Y-14266786D01*
X12245357Y-14257262D01*
X12340595Y-14209643D02*
X12340595Y-14409643D01*
X12340595Y-14219167D02*
X12359643Y-14209643D01*
X12397738Y-14209643D01*
X12416786Y-14219167D01*
X12426309Y-14228690D01*
X12435833Y-14247738D01*
X12435833Y-14304881D01*
X12426309Y-14323928D01*
X12416786Y-14333452D01*
X12397738Y-14342976D01*
X12359643Y-14342976D01*
X12340595Y-14333452D01*
X12521548Y-14323928D02*
X12531071Y-14333452D01*
X12521548Y-14342976D01*
X12512024Y-14333452D01*
X12521548Y-14323928D01*
X12521548Y-14342976D01*
X12521548Y-14219167D02*
X12531071Y-14228690D01*
X12521548Y-14238214D01*
X12512024Y-14228690D01*
X12521548Y-14219167D01*
X12521548Y-14238214D01*
D12*
X10852500Y-14652500D02*
X10892500Y-14692500D01*
X10892500Y-14652500D02*
X10852500Y-14692500D01*
D11*
X11188214Y-14562976D02*
X11207262Y-14562976D01*
X11226309Y-14572500D01*
X11235833Y-14582024D01*
X11245357Y-14601071D01*
X11254881Y-14639167D01*
X11254881Y-14686786D01*
X11245357Y-14724881D01*
X11235833Y-14743928D01*
X11226309Y-14753452D01*
X11207262Y-14762976D01*
X11188214Y-14762976D01*
X11169167Y-14753452D01*
X11159643Y-14743928D01*
X11150119Y-14724881D01*
X11140595Y-14686786D01*
X11140595Y-14639167D01*
X11150119Y-14601071D01*
X11159643Y-14582024D01*
X11169167Y-14572500D01*
X11188214Y-14562976D01*
X11340595Y-14743928D02*
X11350119Y-14753452D01*
X11340595Y-14762976D01*
X11331071Y-14753452D01*
X11340595Y-14743928D01*
X11340595Y-14762976D01*
X11521548Y-14629643D02*
X11521548Y-14762976D01*
X11473928Y-14553452D02*
X11426309Y-14696309D01*
X11550119Y-14696309D01*
X11664405Y-14562976D02*
X11683452Y-14562976D01*
X11702500Y-14572500D01*
X11712024Y-14582024D01*
X11721548Y-14601071D01*
X11731071Y-14639167D01*
X11731071Y-14686786D01*
X11721548Y-14724881D01*
X11712024Y-14743928D01*
X11702500Y-14753452D01*
X11683452Y-14762976D01*
X11664405Y-14762976D01*
X11645357Y-14753452D01*
X11635833Y-14743928D01*
X11626309Y-14724881D01*
X11616786Y-14686786D01*
X11616786Y-14639167D01*
X11626309Y-14601071D01*
X11635833Y-14582024D01*
X11645357Y-14572500D01*
X11664405Y-14562976D01*
X11854881Y-14562976D02*
X11873928Y-14562976D01*
X11892976Y-14572500D01*
X11902500Y-14582024D01*
X11912024Y-14601071D01*
X11921548Y-14639167D01*
X11921548Y-14686786D01*
X11912024Y-14724881D01*
X11902500Y-14743928D01*
X11892976Y-14753452D01*
X11873928Y-14762976D01*
X11854881Y-14762976D01*
X11835833Y-14753452D01*
X11826309Y-14743928D01*
X11816786Y-14724881D01*
X11807262Y-14686786D01*
X11807262Y-14639167D01*
X11816786Y-14601071D01*
X11826309Y-14582024D01*
X11835833Y-14572500D01*
X11854881Y-14562976D01*
X12007262Y-14762976D02*
X12007262Y-14629643D01*
X12007262Y-14648690D02*
X12016786Y-14639167D01*
X12035833Y-14629643D01*
X12064405Y-14629643D01*
X12083452Y-14639167D01*
X12092976Y-14658214D01*
X12092976Y-14762976D01*
X12092976Y-14658214D02*
X12102500Y-14639167D01*
X12121548Y-14629643D01*
X12150119Y-14629643D01*
X12169167Y-14639167D01*
X12178690Y-14658214D01*
X12178690Y-14762976D01*
X12273928Y-14762976D02*
X12273928Y-14629643D01*
X12273928Y-14648690D02*
X12283452Y-14639167D01*
X12302500Y-14629643D01*
X12331071Y-14629643D01*
X12350119Y-14639167D01*
X12359643Y-14658214D01*
X12359643Y-14762976D01*
X12359643Y-14658214D02*
X12369167Y-14639167D01*
X12388214Y-14629643D01*
X12416786Y-14629643D01*
X12435833Y-14639167D01*
X12445357Y-14658214D01*
X12445357Y-14762976D01*
X12835833Y-14553452D02*
X12664405Y-14810595D01*
X13092976Y-14562976D02*
X13112024Y-14562976D01*
X13131071Y-14572500D01*
X13140595Y-14582024D01*
X13150119Y-14601071D01*
X13159643Y-14639167D01*
X13159643Y-14686786D01*
X13150119Y-14724881D01*
X13140595Y-14743928D01*
X13131071Y-14753452D01*
X13112024Y-14762976D01*
X13092976Y-14762976D01*
X13073928Y-14753452D01*
X13064405Y-14743928D01*
X13054881Y-14724881D01*
X13045357Y-14686786D01*
X13045357Y-14639167D01*
X13054881Y-14601071D01*
X13064405Y-14582024D01*
X13073928Y-14572500D01*
X13092976Y-14562976D01*
X13245357Y-14743928D02*
X13254881Y-14753452D01*
X13245357Y-14762976D01*
X13235833Y-14753452D01*
X13245357Y-14743928D01*
X13245357Y-14762976D01*
X13378690Y-14562976D02*
X13397738Y-14562976D01*
X13416786Y-14572500D01*
X13426309Y-14582024D01*
X13435833Y-14601071D01*
X13445357Y-14639167D01*
X13445357Y-14686786D01*
X13435833Y-14724881D01*
X13426309Y-14743928D01*
X13416786Y-14753452D01*
X13397738Y-14762976D01*
X13378690Y-14762976D01*
X13359643Y-14753452D01*
X13350119Y-14743928D01*
X13340595Y-14724881D01*
X13331071Y-14686786D01*
X13331071Y-14639167D01*
X13340595Y-14601071D01*
X13350119Y-14582024D01*
X13359643Y-14572500D01*
X13378690Y-14562976D01*
X13635833Y-14762976D02*
X13521548Y-14762976D01*
X13578690Y-14762976D02*
X13578690Y-14562976D01*
X13559643Y-14591548D01*
X13540595Y-14610595D01*
X13521548Y-14620119D01*
X13816786Y-14562976D02*
X13721548Y-14562976D01*
X13712024Y-14658214D01*
X13721548Y-14648690D01*
X13740595Y-14639167D01*
X13788214Y-14639167D01*
X13807262Y-14648690D01*
X13816786Y-14658214D01*
X13826309Y-14677262D01*
X13826309Y-14724881D01*
X13816786Y-14743928D01*
X13807262Y-14753452D01*
X13788214Y-14762976D01*
X13740595Y-14762976D01*
X13721548Y-14753452D01*
X13712024Y-14743928D01*
X13892976Y-14562976D02*
X14026309Y-14562976D01*
X13940595Y-14762976D01*
X14092976Y-14562976D02*
X14092976Y-14601071D01*
X14169167Y-14562976D02*
X14169167Y-14601071D01*
X14464405Y-14839167D02*
X14454881Y-14829643D01*
X14435833Y-14801071D01*
X14426309Y-14782024D01*
X14416786Y-14753452D01*
X14407262Y-14705833D01*
X14407262Y-14667738D01*
X14416786Y-14620119D01*
X14426309Y-14591548D01*
X14435833Y-14572500D01*
X14454881Y-14543928D01*
X14464405Y-14534405D01*
X14626309Y-14629643D02*
X14626309Y-14762976D01*
X14578690Y-14553452D02*
X14531071Y-14696309D01*
X14654881Y-14696309D01*
X14883452Y-14762976D02*
X14883452Y-14562976D01*
X14969167Y-14762976D02*
X14969167Y-14658214D01*
X14959643Y-14639167D01*
X14940595Y-14629643D01*
X14912024Y-14629643D01*
X14892976Y-14639167D01*
X14883452Y-14648690D01*
X15092976Y-14762976D02*
X15073928Y-14753452D01*
X15064405Y-14743928D01*
X15054881Y-14724881D01*
X15054881Y-14667738D01*
X15064405Y-14648690D01*
X15073928Y-14639167D01*
X15092976Y-14629643D01*
X15121548Y-14629643D01*
X15140595Y-14639167D01*
X15150119Y-14648690D01*
X15159643Y-14667738D01*
X15159643Y-14724881D01*
X15150119Y-14743928D01*
X15140595Y-14753452D01*
X15121548Y-14762976D01*
X15092976Y-14762976D01*
X15273928Y-14762976D02*
X15254881Y-14753452D01*
X15245357Y-14734405D01*
X15245357Y-14562976D01*
X15426309Y-14753452D02*
X15407262Y-14762976D01*
X15369167Y-14762976D01*
X15350119Y-14753452D01*
X15340595Y-14734405D01*
X15340595Y-14658214D01*
X15350119Y-14639167D01*
X15369167Y-14629643D01*
X15407262Y-14629643D01*
X15426309Y-14639167D01*
X15435833Y-14658214D01*
X15435833Y-14677262D01*
X15340595Y-14696309D01*
X15512024Y-14753452D02*
X15531071Y-14762976D01*
X15569167Y-14762976D01*
X15588214Y-14753452D01*
X15597738Y-14734405D01*
X15597738Y-14724881D01*
X15588214Y-14705833D01*
X15569167Y-14696309D01*
X15540595Y-14696309D01*
X15521548Y-14686786D01*
X15512024Y-14667738D01*
X15512024Y-14658214D01*
X15521548Y-14639167D01*
X15540595Y-14629643D01*
X15569167Y-14629643D01*
X15588214Y-14639167D01*
X15664405Y-14839167D02*
X15673928Y-14829643D01*
X15692976Y-14801071D01*
X15702500Y-14782024D01*
X15712024Y-14753452D01*
X15721548Y-14705833D01*
X15721548Y-14667738D01*
X15712024Y-14620119D01*
X15702500Y-14591548D01*
X15692976Y-14572500D01*
X15673928Y-14543928D01*
X15664405Y-14534405D01*
D13*
X10892500Y-14936500D02*
G75*
G03*
X10892500Y-14936500I-32500J0D01*
G01*
D11*
X11188214Y-14826976D02*
X11207262Y-14826976D01*
X11226309Y-14836500D01*
X11235833Y-14846024D01*
X11245357Y-14865071D01*
X11254881Y-14903167D01*
X11254881Y-14950786D01*
X11245357Y-14988881D01*
X11235833Y-15007928D01*
X11226309Y-15017452D01*
X11207262Y-15026976D01*
X11188214Y-15026976D01*
X11169167Y-15017452D01*
X11159643Y-15007928D01*
X11150119Y-14988881D01*
X11140595Y-14950786D01*
X11140595Y-14903167D01*
X11150119Y-14865071D01*
X11159643Y-14846024D01*
X11169167Y-14836500D01*
X11188214Y-14826976D01*
X11340595Y-15007928D02*
X11350119Y-15017452D01*
X11340595Y-15026976D01*
X11331071Y-15017452D01*
X11340595Y-15007928D01*
X11340595Y-15026976D01*
X11521548Y-14826976D02*
X11483452Y-14826976D01*
X11464405Y-14836500D01*
X11454881Y-14846024D01*
X11435833Y-14874595D01*
X11426309Y-14912690D01*
X11426309Y-14988881D01*
X11435833Y-15007928D01*
X11445357Y-15017452D01*
X11464405Y-15026976D01*
X11502500Y-15026976D01*
X11521548Y-15017452D01*
X11531071Y-15007928D01*
X11540595Y-14988881D01*
X11540595Y-14941262D01*
X11531071Y-14922214D01*
X11521548Y-14912690D01*
X11502500Y-14903167D01*
X11464405Y-14903167D01*
X11445357Y-14912690D01*
X11435833Y-14922214D01*
X11426309Y-14941262D01*
X11721548Y-14826976D02*
X11626309Y-14826976D01*
X11616786Y-14922214D01*
X11626309Y-14912690D01*
X11645357Y-14903167D01*
X11692976Y-14903167D01*
X11712024Y-14912690D01*
X11721548Y-14922214D01*
X11731071Y-14941262D01*
X11731071Y-14988881D01*
X11721548Y-15007928D01*
X11712024Y-15017452D01*
X11692976Y-15026976D01*
X11645357Y-15026976D01*
X11626309Y-15017452D01*
X11616786Y-15007928D01*
X11854881Y-14826976D02*
X11873928Y-14826976D01*
X11892976Y-14836500D01*
X11902500Y-14846024D01*
X11912024Y-14865071D01*
X11921548Y-14903167D01*
X11921548Y-14950786D01*
X11912024Y-14988881D01*
X11902500Y-15007928D01*
X11892976Y-15017452D01*
X11873928Y-15026976D01*
X11854881Y-15026976D01*
X11835833Y-15017452D01*
X11826309Y-15007928D01*
X11816786Y-14988881D01*
X11807262Y-14950786D01*
X11807262Y-14903167D01*
X11816786Y-14865071D01*
X11826309Y-14846024D01*
X11835833Y-14836500D01*
X11854881Y-14826976D01*
X12007262Y-15026976D02*
X12007262Y-14893643D01*
X12007262Y-14912690D02*
X12016786Y-14903167D01*
X12035833Y-14893643D01*
X12064405Y-14893643D01*
X12083452Y-14903167D01*
X12092976Y-14922214D01*
X12092976Y-15026976D01*
X12092976Y-14922214D02*
X12102500Y-14903167D01*
X12121548Y-14893643D01*
X12150119Y-14893643D01*
X12169167Y-14903167D01*
X12178690Y-14922214D01*
X12178690Y-15026976D01*
X12273928Y-15026976D02*
X12273928Y-14893643D01*
X12273928Y-14912690D02*
X12283452Y-14903167D01*
X12302500Y-14893643D01*
X12331071Y-14893643D01*
X12350119Y-14903167D01*
X12359643Y-14922214D01*
X12359643Y-15026976D01*
X12359643Y-14922214D02*
X12369167Y-14903167D01*
X12388214Y-14893643D01*
X12416786Y-14893643D01*
X12435833Y-14903167D01*
X12445357Y-14922214D01*
X12445357Y-15026976D01*
X12835833Y-14817452D02*
X12664405Y-15074595D01*
X13092976Y-14826976D02*
X13112024Y-14826976D01*
X13131071Y-14836500D01*
X13140595Y-14846024D01*
X13150119Y-14865071D01*
X13159643Y-14903167D01*
X13159643Y-14950786D01*
X13150119Y-14988881D01*
X13140595Y-15007928D01*
X13131071Y-15017452D01*
X13112024Y-15026976D01*
X13092976Y-15026976D01*
X13073928Y-15017452D01*
X13064405Y-15007928D01*
X13054881Y-14988881D01*
X13045357Y-14950786D01*
X13045357Y-14903167D01*
X13054881Y-14865071D01*
X13064405Y-14846024D01*
X13073928Y-14836500D01*
X13092976Y-14826976D01*
X13245357Y-15007928D02*
X13254881Y-15017452D01*
X13245357Y-15026976D01*
X13235833Y-15017452D01*
X13245357Y-15007928D01*
X13245357Y-15026976D01*
X13378690Y-14826976D02*
X13397738Y-14826976D01*
X13416786Y-14836500D01*
X13426309Y-14846024D01*
X13435833Y-14865071D01*
X13445357Y-14903167D01*
X13445357Y-14950786D01*
X13435833Y-14988881D01*
X13426309Y-15007928D01*
X13416786Y-15017452D01*
X13397738Y-15026976D01*
X13378690Y-15026976D01*
X13359643Y-15017452D01*
X13350119Y-15007928D01*
X13340595Y-14988881D01*
X13331071Y-14950786D01*
X13331071Y-14903167D01*
X13340595Y-14865071D01*
X13350119Y-14846024D01*
X13359643Y-14836500D01*
X13378690Y-14826976D01*
X13521548Y-14846024D02*
X13531071Y-14836500D01*
X13550119Y-14826976D01*
X13597738Y-14826976D01*
X13616786Y-14836500D01*
X13626309Y-14846024D01*
X13635833Y-14865071D01*
X13635833Y-14884119D01*
X13626309Y-14912690D01*
X13512024Y-15026976D01*
X13635833Y-15026976D01*
X13816786Y-14826976D02*
X13721548Y-14826976D01*
X13712024Y-14922214D01*
X13721548Y-14912690D01*
X13740595Y-14903167D01*
X13788214Y-14903167D01*
X13807262Y-14912690D01*
X13816786Y-14922214D01*
X13826309Y-14941262D01*
X13826309Y-14988881D01*
X13816786Y-15007928D01*
X13807262Y-15017452D01*
X13788214Y-15026976D01*
X13740595Y-15026976D01*
X13721548Y-15017452D01*
X13712024Y-15007928D01*
X13997738Y-14826976D02*
X13959643Y-14826976D01*
X13940595Y-14836500D01*
X13931071Y-14846024D01*
X13912024Y-14874595D01*
X13902500Y-14912690D01*
X13902500Y-14988881D01*
X13912024Y-15007928D01*
X13921548Y-15017452D01*
X13940595Y-15026976D01*
X13978690Y-15026976D01*
X13997738Y-15017452D01*
X14007262Y-15007928D01*
X14016786Y-14988881D01*
X14016786Y-14941262D01*
X14007262Y-14922214D01*
X13997738Y-14912690D01*
X13978690Y-14903167D01*
X13940595Y-14903167D01*
X13921548Y-14912690D01*
X13912024Y-14922214D01*
X13902500Y-14941262D01*
X14092976Y-14826976D02*
X14092976Y-14865071D01*
X14169167Y-14826976D02*
X14169167Y-14865071D01*
X14464405Y-15103167D02*
X14454881Y-15093643D01*
X14435833Y-15065071D01*
X14426309Y-15046024D01*
X14416786Y-15017452D01*
X14407262Y-14969833D01*
X14407262Y-14931738D01*
X14416786Y-14884119D01*
X14426309Y-14855548D01*
X14435833Y-14836500D01*
X14454881Y-14807928D01*
X14464405Y-14798405D01*
X14645357Y-15026976D02*
X14531071Y-15026976D01*
X14588214Y-15026976D02*
X14588214Y-14826976D01*
X14569167Y-14855548D01*
X14550119Y-14874595D01*
X14531071Y-14884119D01*
X14816786Y-14893643D02*
X14816786Y-15026976D01*
X14769167Y-14817452D02*
X14721548Y-14960309D01*
X14845357Y-14960309D01*
X15073928Y-15026976D02*
X15073928Y-14826976D01*
X15159643Y-15026976D02*
X15159643Y-14922214D01*
X15150119Y-14903167D01*
X15131071Y-14893643D01*
X15102500Y-14893643D01*
X15083452Y-14903167D01*
X15073928Y-14912690D01*
X15283452Y-15026976D02*
X15264405Y-15017452D01*
X15254881Y-15007928D01*
X15245357Y-14988881D01*
X15245357Y-14931738D01*
X15254881Y-14912690D01*
X15264405Y-14903167D01*
X15283452Y-14893643D01*
X15312024Y-14893643D01*
X15331071Y-14903167D01*
X15340595Y-14912690D01*
X15350119Y-14931738D01*
X15350119Y-14988881D01*
X15340595Y-15007928D01*
X15331071Y-15017452D01*
X15312024Y-15026976D01*
X15283452Y-15026976D01*
X15464405Y-15026976D02*
X15445357Y-15017452D01*
X15435833Y-14998405D01*
X15435833Y-14826976D01*
X15616786Y-15017452D02*
X15597738Y-15026976D01*
X15559643Y-15026976D01*
X15540595Y-15017452D01*
X15531071Y-14998405D01*
X15531071Y-14922214D01*
X15540595Y-14903167D01*
X15559643Y-14893643D01*
X15597738Y-14893643D01*
X15616786Y-14903167D01*
X15626309Y-14922214D01*
X15626309Y-14941262D01*
X15531071Y-14960309D01*
X15702500Y-15017452D02*
X15721548Y-15026976D01*
X15759643Y-15026976D01*
X15778690Y-15017452D01*
X15788214Y-14998405D01*
X15788214Y-14988881D01*
X15778690Y-14969833D01*
X15759643Y-14960309D01*
X15731071Y-14960309D01*
X15712024Y-14950786D01*
X15702500Y-14931738D01*
X15702500Y-14922214D01*
X15712024Y-14903167D01*
X15731071Y-14893643D01*
X15759643Y-14893643D01*
X15778690Y-14903167D01*
X15854881Y-15103167D02*
X15864405Y-15093643D01*
X15883452Y-15065071D01*
X15892976Y-15046024D01*
X15902500Y-15017452D01*
X15912024Y-14969833D01*
X15912024Y-14931738D01*
X15902500Y-14884119D01*
X15892976Y-14855548D01*
X15883452Y-14836500D01*
X15864405Y-14807928D01*
X15854881Y-14798405D01*
D14*
X10852500Y-15160500D02*
X10852500Y-15240500D01*
X10812500Y-15200500D02*
X10892500Y-15200500D01*
D11*
X11188214Y-15090976D02*
X11207262Y-15090976D01*
X11226309Y-15100500D01*
X11235833Y-15110024D01*
X11245357Y-15129071D01*
X11254881Y-15167167D01*
X11254881Y-15214786D01*
X11245357Y-15252881D01*
X11235833Y-15271928D01*
X11226309Y-15281452D01*
X11207262Y-15290976D01*
X11188214Y-15290976D01*
X11169167Y-15281452D01*
X11159643Y-15271928D01*
X11150119Y-15252881D01*
X11140595Y-15214786D01*
X11140595Y-15167167D01*
X11150119Y-15129071D01*
X11159643Y-15110024D01*
X11169167Y-15100500D01*
X11188214Y-15090976D01*
X11340595Y-15271928D02*
X11350119Y-15281452D01*
X11340595Y-15290976D01*
X11331071Y-15281452D01*
X11340595Y-15271928D01*
X11340595Y-15290976D01*
X11464405Y-15176690D02*
X11445357Y-15167167D01*
X11435833Y-15157643D01*
X11426309Y-15138595D01*
X11426309Y-15129071D01*
X11435833Y-15110024D01*
X11445357Y-15100500D01*
X11464405Y-15090976D01*
X11502500Y-15090976D01*
X11521548Y-15100500D01*
X11531071Y-15110024D01*
X11540595Y-15129071D01*
X11540595Y-15138595D01*
X11531071Y-15157643D01*
X11521548Y-15167167D01*
X11502500Y-15176690D01*
X11464405Y-15176690D01*
X11445357Y-15186214D01*
X11435833Y-15195738D01*
X11426309Y-15214786D01*
X11426309Y-15252881D01*
X11435833Y-15271928D01*
X11445357Y-15281452D01*
X11464405Y-15290976D01*
X11502500Y-15290976D01*
X11521548Y-15281452D01*
X11531071Y-15271928D01*
X11540595Y-15252881D01*
X11540595Y-15214786D01*
X11531071Y-15195738D01*
X11521548Y-15186214D01*
X11502500Y-15176690D01*
X11664405Y-15090976D02*
X11683452Y-15090976D01*
X11702500Y-15100500D01*
X11712024Y-15110024D01*
X11721548Y-15129071D01*
X11731071Y-15167167D01*
X11731071Y-15214786D01*
X11721548Y-15252881D01*
X11712024Y-15271928D01*
X11702500Y-15281452D01*
X11683452Y-15290976D01*
X11664405Y-15290976D01*
X11645357Y-15281452D01*
X11635833Y-15271928D01*
X11626309Y-15252881D01*
X11616786Y-15214786D01*
X11616786Y-15167167D01*
X11626309Y-15129071D01*
X11635833Y-15110024D01*
X11645357Y-15100500D01*
X11664405Y-15090976D01*
X11854881Y-15090976D02*
X11873928Y-15090976D01*
X11892976Y-15100500D01*
X11902500Y-15110024D01*
X11912024Y-15129071D01*
X11921548Y-15167167D01*
X11921548Y-15214786D01*
X11912024Y-15252881D01*
X11902500Y-15271928D01*
X11892976Y-15281452D01*
X11873928Y-15290976D01*
X11854881Y-15290976D01*
X11835833Y-15281452D01*
X11826309Y-15271928D01*
X11816786Y-15252881D01*
X11807262Y-15214786D01*
X11807262Y-15167167D01*
X11816786Y-15129071D01*
X11826309Y-15110024D01*
X11835833Y-15100500D01*
X11854881Y-15090976D01*
X12007262Y-15290976D02*
X12007262Y-15157643D01*
X12007262Y-15176690D02*
X12016786Y-15167167D01*
X12035833Y-15157643D01*
X12064405Y-15157643D01*
X12083452Y-15167167D01*
X12092976Y-15186214D01*
X12092976Y-15290976D01*
X12092976Y-15186214D02*
X12102500Y-15167167D01*
X12121548Y-15157643D01*
X12150119Y-15157643D01*
X12169167Y-15167167D01*
X12178690Y-15186214D01*
X12178690Y-15290976D01*
X12273928Y-15290976D02*
X12273928Y-15157643D01*
X12273928Y-15176690D02*
X12283452Y-15167167D01*
X12302500Y-15157643D01*
X12331071Y-15157643D01*
X12350119Y-15167167D01*
X12359643Y-15186214D01*
X12359643Y-15290976D01*
X12359643Y-15186214D02*
X12369167Y-15167167D01*
X12388214Y-15157643D01*
X12416786Y-15157643D01*
X12435833Y-15167167D01*
X12445357Y-15186214D01*
X12445357Y-15290976D01*
X12835833Y-15081452D02*
X12664405Y-15338595D01*
X13092976Y-15090976D02*
X13112024Y-15090976D01*
X13131071Y-15100500D01*
X13140595Y-15110024D01*
X13150119Y-15129071D01*
X13159643Y-15167167D01*
X13159643Y-15214786D01*
X13150119Y-15252881D01*
X13140595Y-15271928D01*
X13131071Y-15281452D01*
X13112024Y-15290976D01*
X13092976Y-15290976D01*
X13073928Y-15281452D01*
X13064405Y-15271928D01*
X13054881Y-15252881D01*
X13045357Y-15214786D01*
X13045357Y-15167167D01*
X13054881Y-15129071D01*
X13064405Y-15110024D01*
X13073928Y-15100500D01*
X13092976Y-15090976D01*
X13245357Y-15271928D02*
X13254881Y-15281452D01*
X13245357Y-15290976D01*
X13235833Y-15281452D01*
X13245357Y-15271928D01*
X13245357Y-15290976D01*
X13378690Y-15090976D02*
X13397738Y-15090976D01*
X13416786Y-15100500D01*
X13426309Y-15110024D01*
X13435833Y-15129071D01*
X13445357Y-15167167D01*
X13445357Y-15214786D01*
X13435833Y-15252881D01*
X13426309Y-15271928D01*
X13416786Y-15281452D01*
X13397738Y-15290976D01*
X13378690Y-15290976D01*
X13359643Y-15281452D01*
X13350119Y-15271928D01*
X13340595Y-15252881D01*
X13331071Y-15214786D01*
X13331071Y-15167167D01*
X13340595Y-15129071D01*
X13350119Y-15110024D01*
X13359643Y-15100500D01*
X13378690Y-15090976D01*
X13512024Y-15090976D02*
X13635833Y-15090976D01*
X13569167Y-15167167D01*
X13597738Y-15167167D01*
X13616786Y-15176690D01*
X13626309Y-15186214D01*
X13635833Y-15205262D01*
X13635833Y-15252881D01*
X13626309Y-15271928D01*
X13616786Y-15281452D01*
X13597738Y-15290976D01*
X13540595Y-15290976D01*
X13521548Y-15281452D01*
X13512024Y-15271928D01*
X13826309Y-15290976D02*
X13712024Y-15290976D01*
X13769167Y-15290976D02*
X13769167Y-15090976D01*
X13750119Y-15119548D01*
X13731071Y-15138595D01*
X13712024Y-15148119D01*
X14007262Y-15090976D02*
X13912024Y-15090976D01*
X13902500Y-15186214D01*
X13912024Y-15176690D01*
X13931071Y-15167167D01*
X13978690Y-15167167D01*
X13997738Y-15176690D01*
X14007262Y-15186214D01*
X14016786Y-15205262D01*
X14016786Y-15252881D01*
X14007262Y-15271928D01*
X13997738Y-15281452D01*
X13978690Y-15290976D01*
X13931071Y-15290976D01*
X13912024Y-15281452D01*
X13902500Y-15271928D01*
X14092976Y-15090976D02*
X14092976Y-15129071D01*
X14169167Y-15090976D02*
X14169167Y-15129071D01*
X14464405Y-15367167D02*
X14454881Y-15357643D01*
X14435833Y-15329071D01*
X14426309Y-15310024D01*
X14416786Y-15281452D01*
X14407262Y-15233833D01*
X14407262Y-15195738D01*
X14416786Y-15148119D01*
X14426309Y-15119548D01*
X14435833Y-15100500D01*
X14454881Y-15071928D01*
X14464405Y-15062405D01*
X14569167Y-15176690D02*
X14550119Y-15167167D01*
X14540595Y-15157643D01*
X14531071Y-15138595D01*
X14531071Y-15129071D01*
X14540595Y-15110024D01*
X14550119Y-15100500D01*
X14569167Y-15090976D01*
X14607262Y-15090976D01*
X14626309Y-15100500D01*
X14635833Y-15110024D01*
X14645357Y-15129071D01*
X14645357Y-15138595D01*
X14635833Y-15157643D01*
X14626309Y-15167167D01*
X14607262Y-15176690D01*
X14569167Y-15176690D01*
X14550119Y-15186214D01*
X14540595Y-15195738D01*
X14531071Y-15214786D01*
X14531071Y-15252881D01*
X14540595Y-15271928D01*
X14550119Y-15281452D01*
X14569167Y-15290976D01*
X14607262Y-15290976D01*
X14626309Y-15281452D01*
X14635833Y-15271928D01*
X14645357Y-15252881D01*
X14645357Y-15214786D01*
X14635833Y-15195738D01*
X14626309Y-15186214D01*
X14607262Y-15176690D01*
X14883452Y-15290976D02*
X14883452Y-15090976D01*
X14969167Y-15290976D02*
X14969167Y-15186214D01*
X14959643Y-15167167D01*
X14940595Y-15157643D01*
X14912024Y-15157643D01*
X14892976Y-15167167D01*
X14883452Y-15176690D01*
X15092976Y-15290976D02*
X15073928Y-15281452D01*
X15064405Y-15271928D01*
X15054881Y-15252881D01*
X15054881Y-15195738D01*
X15064405Y-15176690D01*
X15073928Y-15167167D01*
X15092976Y-15157643D01*
X15121548Y-15157643D01*
X15140595Y-15167167D01*
X15150119Y-15176690D01*
X15159643Y-15195738D01*
X15159643Y-15252881D01*
X15150119Y-15271928D01*
X15140595Y-15281452D01*
X15121548Y-15290976D01*
X15092976Y-15290976D01*
X15273928Y-15290976D02*
X15254881Y-15281452D01*
X15245357Y-15262405D01*
X15245357Y-15090976D01*
X15426309Y-15281452D02*
X15407262Y-15290976D01*
X15369167Y-15290976D01*
X15350119Y-15281452D01*
X15340595Y-15262405D01*
X15340595Y-15186214D01*
X15350119Y-15167167D01*
X15369167Y-15157643D01*
X15407262Y-15157643D01*
X15426309Y-15167167D01*
X15435833Y-15186214D01*
X15435833Y-15205262D01*
X15340595Y-15224309D01*
X15512024Y-15281452D02*
X15531071Y-15290976D01*
X15569167Y-15290976D01*
X15588214Y-15281452D01*
X15597738Y-15262405D01*
X15597738Y-15252881D01*
X15588214Y-15233833D01*
X15569167Y-15224309D01*
X15540595Y-15224309D01*
X15521548Y-15214786D01*
X15512024Y-15195738D01*
X15512024Y-15186214D01*
X15521548Y-15167167D01*
X15540595Y-15157643D01*
X15569167Y-15157643D01*
X15588214Y-15167167D01*
X15664405Y-15367167D02*
X15673928Y-15357643D01*
X15692976Y-15329071D01*
X15702500Y-15310024D01*
X15712024Y-15281452D01*
X15721548Y-15233833D01*
X15721548Y-15195738D01*
X15712024Y-15148119D01*
X15702500Y-15119548D01*
X15692976Y-15100500D01*
X15673928Y-15071928D01*
X15664405Y-15062405D01*
D15*
X10877856Y-15499856D02*
X10877856Y-15429144D01*
X10807144Y-15429144D01*
X10807144Y-15499856D01*
X10877856Y-15499856D01*
D11*
X11254881Y-15554976D02*
X11140595Y-15554976D01*
X11197738Y-15554976D02*
X11197738Y-15354976D01*
X11178690Y-15383548D01*
X11159643Y-15402595D01*
X11140595Y-15412119D01*
X11340595Y-15535928D02*
X11350119Y-15545452D01*
X11340595Y-15554976D01*
X11331071Y-15545452D01*
X11340595Y-15535928D01*
X11340595Y-15554976D01*
X11473928Y-15354976D02*
X11492976Y-15354976D01*
X11512024Y-15364500D01*
X11521548Y-15374024D01*
X11531071Y-15393071D01*
X11540595Y-15431167D01*
X11540595Y-15478786D01*
X11531071Y-15516881D01*
X11521548Y-15535928D01*
X11512024Y-15545452D01*
X11492976Y-15554976D01*
X11473928Y-15554976D01*
X11454881Y-15545452D01*
X11445357Y-15535928D01*
X11435833Y-15516881D01*
X11426309Y-15478786D01*
X11426309Y-15431167D01*
X11435833Y-15393071D01*
X11445357Y-15374024D01*
X11454881Y-15364500D01*
X11473928Y-15354976D01*
X11664405Y-15354976D02*
X11683452Y-15354976D01*
X11702500Y-15364500D01*
X11712024Y-15374024D01*
X11721548Y-15393071D01*
X11731071Y-15431167D01*
X11731071Y-15478786D01*
X11721548Y-15516881D01*
X11712024Y-15535928D01*
X11702500Y-15545452D01*
X11683452Y-15554976D01*
X11664405Y-15554976D01*
X11645357Y-15545452D01*
X11635833Y-15535928D01*
X11626309Y-15516881D01*
X11616786Y-15478786D01*
X11616786Y-15431167D01*
X11626309Y-15393071D01*
X11635833Y-15374024D01*
X11645357Y-15364500D01*
X11664405Y-15354976D01*
X11854881Y-15354976D02*
X11873928Y-15354976D01*
X11892976Y-15364500D01*
X11902500Y-15374024D01*
X11912024Y-15393071D01*
X11921548Y-15431167D01*
X11921548Y-15478786D01*
X11912024Y-15516881D01*
X11902500Y-15535928D01*
X11892976Y-15545452D01*
X11873928Y-15554976D01*
X11854881Y-15554976D01*
X11835833Y-15545452D01*
X11826309Y-15535928D01*
X11816786Y-15516881D01*
X11807262Y-15478786D01*
X11807262Y-15431167D01*
X11816786Y-15393071D01*
X11826309Y-15374024D01*
X11835833Y-15364500D01*
X11854881Y-15354976D01*
X12007262Y-15554976D02*
X12007262Y-15421643D01*
X12007262Y-15440690D02*
X12016786Y-15431167D01*
X12035833Y-15421643D01*
X12064405Y-15421643D01*
X12083452Y-15431167D01*
X12092976Y-15450214D01*
X12092976Y-15554976D01*
X12092976Y-15450214D02*
X12102500Y-15431167D01*
X12121548Y-15421643D01*
X12150119Y-15421643D01*
X12169167Y-15431167D01*
X12178690Y-15450214D01*
X12178690Y-15554976D01*
X12273928Y-15554976D02*
X12273928Y-15421643D01*
X12273928Y-15440690D02*
X12283452Y-15431167D01*
X12302500Y-15421643D01*
X12331071Y-15421643D01*
X12350119Y-15431167D01*
X12359643Y-15450214D01*
X12359643Y-15554976D01*
X12359643Y-15450214D02*
X12369167Y-15431167D01*
X12388214Y-15421643D01*
X12416786Y-15421643D01*
X12435833Y-15431167D01*
X12445357Y-15450214D01*
X12445357Y-15554976D01*
X12835833Y-15345452D02*
X12664405Y-15602595D01*
X13092976Y-15354976D02*
X13112024Y-15354976D01*
X13131071Y-15364500D01*
X13140595Y-15374024D01*
X13150119Y-15393071D01*
X13159643Y-15431167D01*
X13159643Y-15478786D01*
X13150119Y-15516881D01*
X13140595Y-15535928D01*
X13131071Y-15545452D01*
X13112024Y-15554976D01*
X13092976Y-15554976D01*
X13073928Y-15545452D01*
X13064405Y-15535928D01*
X13054881Y-15516881D01*
X13045357Y-15478786D01*
X13045357Y-15431167D01*
X13054881Y-15393071D01*
X13064405Y-15374024D01*
X13073928Y-15364500D01*
X13092976Y-15354976D01*
X13245357Y-15535928D02*
X13254881Y-15545452D01*
X13245357Y-15554976D01*
X13235833Y-15545452D01*
X13245357Y-15535928D01*
X13245357Y-15554976D01*
X13378690Y-15354976D02*
X13397738Y-15354976D01*
X13416786Y-15364500D01*
X13426309Y-15374024D01*
X13435833Y-15393071D01*
X13445357Y-15431167D01*
X13445357Y-15478786D01*
X13435833Y-15516881D01*
X13426309Y-15535928D01*
X13416786Y-15545452D01*
X13397738Y-15554976D01*
X13378690Y-15554976D01*
X13359643Y-15545452D01*
X13350119Y-15535928D01*
X13340595Y-15516881D01*
X13331071Y-15478786D01*
X13331071Y-15431167D01*
X13340595Y-15393071D01*
X13350119Y-15374024D01*
X13359643Y-15364500D01*
X13378690Y-15354976D01*
X13512024Y-15354976D02*
X13635833Y-15354976D01*
X13569167Y-15431167D01*
X13597738Y-15431167D01*
X13616786Y-15440690D01*
X13626309Y-15450214D01*
X13635833Y-15469262D01*
X13635833Y-15516881D01*
X13626309Y-15535928D01*
X13616786Y-15545452D01*
X13597738Y-15554976D01*
X13540595Y-15554976D01*
X13521548Y-15545452D01*
X13512024Y-15535928D01*
X13731071Y-15554976D02*
X13769167Y-15554976D01*
X13788214Y-15545452D01*
X13797738Y-15535928D01*
X13816786Y-15507357D01*
X13826309Y-15469262D01*
X13826309Y-15393071D01*
X13816786Y-15374024D01*
X13807262Y-15364500D01*
X13788214Y-15354976D01*
X13750119Y-15354976D01*
X13731071Y-15364500D01*
X13721548Y-15374024D01*
X13712024Y-15393071D01*
X13712024Y-15440690D01*
X13721548Y-15459738D01*
X13731071Y-15469262D01*
X13750119Y-15478786D01*
X13788214Y-15478786D01*
X13807262Y-15469262D01*
X13816786Y-15459738D01*
X13826309Y-15440690D01*
X13997738Y-15421643D02*
X13997738Y-15554976D01*
X13950119Y-15345452D02*
X13902500Y-15488309D01*
X14026309Y-15488309D01*
X14092976Y-15354976D02*
X14092976Y-15393071D01*
X14169167Y-15354976D02*
X14169167Y-15393071D01*
X14464405Y-15631167D02*
X14454881Y-15621643D01*
X14435833Y-15593071D01*
X14426309Y-15574024D01*
X14416786Y-15545452D01*
X14407262Y-15497833D01*
X14407262Y-15459738D01*
X14416786Y-15412119D01*
X14426309Y-15383548D01*
X14435833Y-15364500D01*
X14454881Y-15335928D01*
X14464405Y-15326405D01*
X14531071Y-15374024D02*
X14540595Y-15364500D01*
X14559643Y-15354976D01*
X14607262Y-15354976D01*
X14626309Y-15364500D01*
X14635833Y-15374024D01*
X14645357Y-15393071D01*
X14645357Y-15412119D01*
X14635833Y-15440690D01*
X14521548Y-15554976D01*
X14645357Y-15554976D01*
X14759643Y-15440690D02*
X14740595Y-15431167D01*
X14731071Y-15421643D01*
X14721548Y-15402595D01*
X14721548Y-15393071D01*
X14731071Y-15374024D01*
X14740595Y-15364500D01*
X14759643Y-15354976D01*
X14797738Y-15354976D01*
X14816786Y-15364500D01*
X14826309Y-15374024D01*
X14835833Y-15393071D01*
X14835833Y-15402595D01*
X14826309Y-15421643D01*
X14816786Y-15431167D01*
X14797738Y-15440690D01*
X14759643Y-15440690D01*
X14740595Y-15450214D01*
X14731071Y-15459738D01*
X14721548Y-15478786D01*
X14721548Y-15516881D01*
X14731071Y-15535928D01*
X14740595Y-15545452D01*
X14759643Y-15554976D01*
X14797738Y-15554976D01*
X14816786Y-15545452D01*
X14826309Y-15535928D01*
X14835833Y-15516881D01*
X14835833Y-15478786D01*
X14826309Y-15459738D01*
X14816786Y-15450214D01*
X14797738Y-15440690D01*
X15073928Y-15554976D02*
X15073928Y-15354976D01*
X15159643Y-15554976D02*
X15159643Y-15450214D01*
X15150119Y-15431167D01*
X15131071Y-15421643D01*
X15102500Y-15421643D01*
X15083452Y-15431167D01*
X15073928Y-15440690D01*
X15283452Y-15554976D02*
X15264405Y-15545452D01*
X15254881Y-15535928D01*
X15245357Y-15516881D01*
X15245357Y-15459738D01*
X15254881Y-15440690D01*
X15264405Y-15431167D01*
X15283452Y-15421643D01*
X15312024Y-15421643D01*
X15331071Y-15431167D01*
X15340595Y-15440690D01*
X15350119Y-15459738D01*
X15350119Y-15516881D01*
X15340595Y-15535928D01*
X15331071Y-15545452D01*
X15312024Y-15554976D01*
X15283452Y-15554976D01*
X15464405Y-15554976D02*
X15445357Y-15545452D01*
X15435833Y-15526405D01*
X15435833Y-15354976D01*
X15616786Y-15545452D02*
X15597738Y-15554976D01*
X15559643Y-15554976D01*
X15540595Y-15545452D01*
X15531071Y-15526405D01*
X15531071Y-15450214D01*
X15540595Y-15431167D01*
X15559643Y-15421643D01*
X15597738Y-15421643D01*
X15616786Y-15431167D01*
X15626309Y-15450214D01*
X15626309Y-15469262D01*
X15531071Y-15488309D01*
X15702500Y-15545452D02*
X15721548Y-15554976D01*
X15759643Y-15554976D01*
X15778690Y-15545452D01*
X15788214Y-15526405D01*
X15788214Y-15516881D01*
X15778690Y-15497833D01*
X15759643Y-15488309D01*
X15731071Y-15488309D01*
X15712024Y-15478786D01*
X15702500Y-15459738D01*
X15702500Y-15450214D01*
X15712024Y-15431167D01*
X15731071Y-15421643D01*
X15759643Y-15421643D01*
X15778690Y-15431167D01*
X15854881Y-15631167D02*
X15864405Y-15621643D01*
X15883452Y-15593071D01*
X15892976Y-15574024D01*
X15902500Y-15545452D01*
X15912024Y-15497833D01*
X15912024Y-15459738D01*
X15902500Y-15412119D01*
X15892976Y-15383548D01*
X15883452Y-15364500D01*
X15864405Y-15335928D01*
X15854881Y-15326405D01*
D16*
X10837500Y-15783500D02*
X10892500Y-15728500D01*
X10837500Y-15673500D01*
X10782500Y-15728500D01*
X10837500Y-15783500D01*
D11*
X11254881Y-15818976D02*
X11140595Y-15818976D01*
X11197738Y-15818976D02*
X11197738Y-15618976D01*
X11178690Y-15647548D01*
X11159643Y-15666595D01*
X11140595Y-15676119D01*
X11340595Y-15799928D02*
X11350119Y-15809452D01*
X11340595Y-15818976D01*
X11331071Y-15809452D01*
X11340595Y-15799928D01*
X11340595Y-15818976D01*
X11540595Y-15818976D02*
X11426309Y-15818976D01*
X11483452Y-15818976D02*
X11483452Y-15618976D01*
X11464405Y-15647548D01*
X11445357Y-15666595D01*
X11426309Y-15676119D01*
X11664405Y-15618976D02*
X11683452Y-15618976D01*
X11702500Y-15628500D01*
X11712024Y-15638024D01*
X11721548Y-15657071D01*
X11731071Y-15695167D01*
X11731071Y-15742786D01*
X11721548Y-15780881D01*
X11712024Y-15799928D01*
X11702500Y-15809452D01*
X11683452Y-15818976D01*
X11664405Y-15818976D01*
X11645357Y-15809452D01*
X11635833Y-15799928D01*
X11626309Y-15780881D01*
X11616786Y-15742786D01*
X11616786Y-15695167D01*
X11626309Y-15657071D01*
X11635833Y-15638024D01*
X11645357Y-15628500D01*
X11664405Y-15618976D01*
X11854881Y-15618976D02*
X11873928Y-15618976D01*
X11892976Y-15628500D01*
X11902500Y-15638024D01*
X11912024Y-15657071D01*
X11921548Y-15695167D01*
X11921548Y-15742786D01*
X11912024Y-15780881D01*
X11902500Y-15799928D01*
X11892976Y-15809452D01*
X11873928Y-15818976D01*
X11854881Y-15818976D01*
X11835833Y-15809452D01*
X11826309Y-15799928D01*
X11816786Y-15780881D01*
X11807262Y-15742786D01*
X11807262Y-15695167D01*
X11816786Y-15657071D01*
X11826309Y-15638024D01*
X11835833Y-15628500D01*
X11854881Y-15618976D01*
X12007262Y-15818976D02*
X12007262Y-15685643D01*
X12007262Y-15704690D02*
X12016786Y-15695167D01*
X12035833Y-15685643D01*
X12064405Y-15685643D01*
X12083452Y-15695167D01*
X12092976Y-15714214D01*
X12092976Y-15818976D01*
X12092976Y-15714214D02*
X12102500Y-15695167D01*
X12121548Y-15685643D01*
X12150119Y-15685643D01*
X12169167Y-15695167D01*
X12178690Y-15714214D01*
X12178690Y-15818976D01*
X12273928Y-15818976D02*
X12273928Y-15685643D01*
X12273928Y-15704690D02*
X12283452Y-15695167D01*
X12302500Y-15685643D01*
X12331071Y-15685643D01*
X12350119Y-15695167D01*
X12359643Y-15714214D01*
X12359643Y-15818976D01*
X12359643Y-15714214D02*
X12369167Y-15695167D01*
X12388214Y-15685643D01*
X12416786Y-15685643D01*
X12435833Y-15695167D01*
X12445357Y-15714214D01*
X12445357Y-15818976D01*
X12835833Y-15609452D02*
X12664405Y-15866595D01*
X13092976Y-15618976D02*
X13112024Y-15618976D01*
X13131071Y-15628500D01*
X13140595Y-15638024D01*
X13150119Y-15657071D01*
X13159643Y-15695167D01*
X13159643Y-15742786D01*
X13150119Y-15780881D01*
X13140595Y-15799928D01*
X13131071Y-15809452D01*
X13112024Y-15818976D01*
X13092976Y-15818976D01*
X13073928Y-15809452D01*
X13064405Y-15799928D01*
X13054881Y-15780881D01*
X13045357Y-15742786D01*
X13045357Y-15695167D01*
X13054881Y-15657071D01*
X13064405Y-15638024D01*
X13073928Y-15628500D01*
X13092976Y-15618976D01*
X13245357Y-15799928D02*
X13254881Y-15809452D01*
X13245357Y-15818976D01*
X13235833Y-15809452D01*
X13245357Y-15799928D01*
X13245357Y-15818976D01*
X13378690Y-15618976D02*
X13397738Y-15618976D01*
X13416786Y-15628500D01*
X13426309Y-15638024D01*
X13435833Y-15657071D01*
X13445357Y-15695167D01*
X13445357Y-15742786D01*
X13435833Y-15780881D01*
X13426309Y-15799928D01*
X13416786Y-15809452D01*
X13397738Y-15818976D01*
X13378690Y-15818976D01*
X13359643Y-15809452D01*
X13350119Y-15799928D01*
X13340595Y-15780881D01*
X13331071Y-15742786D01*
X13331071Y-15695167D01*
X13340595Y-15657071D01*
X13350119Y-15638024D01*
X13359643Y-15628500D01*
X13378690Y-15618976D01*
X13616786Y-15685643D02*
X13616786Y-15818976D01*
X13569167Y-15609452D02*
X13521548Y-15752309D01*
X13645357Y-15752309D01*
X13702500Y-15618976D02*
X13826309Y-15618976D01*
X13759643Y-15695167D01*
X13788214Y-15695167D01*
X13807262Y-15704690D01*
X13816786Y-15714214D01*
X13826309Y-15733262D01*
X13826309Y-15780881D01*
X13816786Y-15799928D01*
X13807262Y-15809452D01*
X13788214Y-15818976D01*
X13731071Y-15818976D01*
X13712024Y-15809452D01*
X13702500Y-15799928D01*
X13892976Y-15618976D02*
X14016786Y-15618976D01*
X13950119Y-15695167D01*
X13978690Y-15695167D01*
X13997738Y-15704690D01*
X14007262Y-15714214D01*
X14016786Y-15733262D01*
X14016786Y-15780881D01*
X14007262Y-15799928D01*
X13997738Y-15809452D01*
X13978690Y-15818976D01*
X13921548Y-15818976D01*
X13902500Y-15809452D01*
X13892976Y-15799928D01*
X14092976Y-15618976D02*
X14092976Y-15657071D01*
X14169167Y-15618976D02*
X14169167Y-15657071D01*
X14464405Y-15895167D02*
X14454881Y-15885643D01*
X14435833Y-15857071D01*
X14426309Y-15838024D01*
X14416786Y-15809452D01*
X14407262Y-15761833D01*
X14407262Y-15723738D01*
X14416786Y-15676119D01*
X14426309Y-15647548D01*
X14435833Y-15628500D01*
X14454881Y-15599928D01*
X14464405Y-15590405D01*
X14645357Y-15818976D02*
X14531071Y-15818976D01*
X14588214Y-15818976D02*
X14588214Y-15618976D01*
X14569167Y-15647548D01*
X14550119Y-15666595D01*
X14531071Y-15676119D01*
X14721548Y-15638024D02*
X14731071Y-15628500D01*
X14750119Y-15618976D01*
X14797738Y-15618976D01*
X14816786Y-15628500D01*
X14826309Y-15638024D01*
X14835833Y-15657071D01*
X14835833Y-15676119D01*
X14826309Y-15704690D01*
X14712024Y-15818976D01*
X14835833Y-15818976D01*
X15073928Y-15818976D02*
X15073928Y-15618976D01*
X15159643Y-15818976D02*
X15159643Y-15714214D01*
X15150119Y-15695167D01*
X15131071Y-15685643D01*
X15102500Y-15685643D01*
X15083452Y-15695167D01*
X15073928Y-15704690D01*
X15283452Y-15818976D02*
X15264405Y-15809452D01*
X15254881Y-15799928D01*
X15245357Y-15780881D01*
X15245357Y-15723738D01*
X15254881Y-15704690D01*
X15264405Y-15695167D01*
X15283452Y-15685643D01*
X15312024Y-15685643D01*
X15331071Y-15695167D01*
X15340595Y-15704690D01*
X15350119Y-15723738D01*
X15350119Y-15780881D01*
X15340595Y-15799928D01*
X15331071Y-15809452D01*
X15312024Y-15818976D01*
X15283452Y-15818976D01*
X15464405Y-15818976D02*
X15445357Y-15809452D01*
X15435833Y-15790405D01*
X15435833Y-15618976D01*
X15616786Y-15809452D02*
X15597738Y-15818976D01*
X15559643Y-15818976D01*
X15540595Y-15809452D01*
X15531071Y-15790405D01*
X15531071Y-15714214D01*
X15540595Y-15695167D01*
X15559643Y-15685643D01*
X15597738Y-15685643D01*
X15616786Y-15695167D01*
X15626309Y-15714214D01*
X15626309Y-15733262D01*
X15531071Y-15752309D01*
X15702500Y-15809452D02*
X15721548Y-15818976D01*
X15759643Y-15818976D01*
X15778690Y-15809452D01*
X15788214Y-15790405D01*
X15788214Y-15780881D01*
X15778690Y-15761833D01*
X15759643Y-15752309D01*
X15731071Y-15752309D01*
X15712024Y-15742786D01*
X15702500Y-15723738D01*
X15702500Y-15714214D01*
X15712024Y-15695167D01*
X15731071Y-15685643D01*
X15759643Y-15685643D01*
X15778690Y-15695167D01*
X15854881Y-15895167D02*
X15864405Y-15885643D01*
X15883452Y-15857071D01*
X15892976Y-15838024D01*
X15902500Y-15809452D01*
X15912024Y-15761833D01*
X15912024Y-15723738D01*
X15902500Y-15676119D01*
X15892976Y-15647548D01*
X15883452Y-15628500D01*
X15864405Y-15599928D01*
X15854881Y-15590405D01*
X10692500Y-15892500D02*
X10892500Y-16092500D01*
X10892500Y-15892500D02*
X10692500Y-16092500D01*
X10892500Y-15992500D02*
G75*
G03*
X10892500Y-15992500I-100000J0D01*
G01*
X11131071Y-15882976D02*
X11254881Y-15882976D01*
X11188214Y-15959167D01*
X11216786Y-15959167D01*
X11235833Y-15968690D01*
X11245357Y-15978214D01*
X11254881Y-15997262D01*
X11254881Y-16044881D01*
X11245357Y-16063928D01*
X11235833Y-16073452D01*
X11216786Y-16082976D01*
X11159643Y-16082976D01*
X11140595Y-16073452D01*
X11131071Y-16063928D01*
X11340595Y-16063928D02*
X11350119Y-16073452D01*
X11340595Y-16082976D01*
X11331071Y-16073452D01*
X11340595Y-16063928D01*
X11340595Y-16082976D01*
X11473928Y-15882976D02*
X11492976Y-15882976D01*
X11512024Y-15892500D01*
X11521548Y-15902024D01*
X11531071Y-15921071D01*
X11540595Y-15959167D01*
X11540595Y-16006786D01*
X11531071Y-16044881D01*
X11521548Y-16063928D01*
X11512024Y-16073452D01*
X11492976Y-16082976D01*
X11473928Y-16082976D01*
X11454881Y-16073452D01*
X11445357Y-16063928D01*
X11435833Y-16044881D01*
X11426309Y-16006786D01*
X11426309Y-15959167D01*
X11435833Y-15921071D01*
X11445357Y-15902024D01*
X11454881Y-15892500D01*
X11473928Y-15882976D01*
X11664405Y-15882976D02*
X11683452Y-15882976D01*
X11702500Y-15892500D01*
X11712024Y-15902024D01*
X11721548Y-15921071D01*
X11731071Y-15959167D01*
X11731071Y-16006786D01*
X11721548Y-16044881D01*
X11712024Y-16063928D01*
X11702500Y-16073452D01*
X11683452Y-16082976D01*
X11664405Y-16082976D01*
X11645357Y-16073452D01*
X11635833Y-16063928D01*
X11626309Y-16044881D01*
X11616786Y-16006786D01*
X11616786Y-15959167D01*
X11626309Y-15921071D01*
X11635833Y-15902024D01*
X11645357Y-15892500D01*
X11664405Y-15882976D01*
X11854881Y-15882976D02*
X11873928Y-15882976D01*
X11892976Y-15892500D01*
X11902500Y-15902024D01*
X11912024Y-15921071D01*
X11921548Y-15959167D01*
X11921548Y-16006786D01*
X11912024Y-16044881D01*
X11902500Y-16063928D01*
X11892976Y-16073452D01*
X11873928Y-16082976D01*
X11854881Y-16082976D01*
X11835833Y-16073452D01*
X11826309Y-16063928D01*
X11816786Y-16044881D01*
X11807262Y-16006786D01*
X11807262Y-15959167D01*
X11816786Y-15921071D01*
X11826309Y-15902024D01*
X11835833Y-15892500D01*
X11854881Y-15882976D01*
X12007262Y-16082976D02*
X12007262Y-15949643D01*
X12007262Y-15968690D02*
X12016786Y-15959167D01*
X12035833Y-15949643D01*
X12064405Y-15949643D01*
X12083452Y-15959167D01*
X12092976Y-15978214D01*
X12092976Y-16082976D01*
X12092976Y-15978214D02*
X12102500Y-15959167D01*
X12121548Y-15949643D01*
X12150119Y-15949643D01*
X12169167Y-15959167D01*
X12178690Y-15978214D01*
X12178690Y-16082976D01*
X12273928Y-16082976D02*
X12273928Y-15949643D01*
X12273928Y-15968690D02*
X12283452Y-15959167D01*
X12302500Y-15949643D01*
X12331071Y-15949643D01*
X12350119Y-15959167D01*
X12359643Y-15978214D01*
X12359643Y-16082976D01*
X12359643Y-15978214D02*
X12369167Y-15959167D01*
X12388214Y-15949643D01*
X12416786Y-15949643D01*
X12435833Y-15959167D01*
X12445357Y-15978214D01*
X12445357Y-16082976D01*
X12835833Y-15873452D02*
X12664405Y-16130595D01*
X13092976Y-15882976D02*
X13112024Y-15882976D01*
X13131071Y-15892500D01*
X13140595Y-15902024D01*
X13150119Y-15921071D01*
X13159643Y-15959167D01*
X13159643Y-16006786D01*
X13150119Y-16044881D01*
X13140595Y-16063928D01*
X13131071Y-16073452D01*
X13112024Y-16082976D01*
X13092976Y-16082976D01*
X13073928Y-16073452D01*
X13064405Y-16063928D01*
X13054881Y-16044881D01*
X13045357Y-16006786D01*
X13045357Y-15959167D01*
X13054881Y-15921071D01*
X13064405Y-15902024D01*
X13073928Y-15892500D01*
X13092976Y-15882976D01*
X13245357Y-16063928D02*
X13254881Y-16073452D01*
X13245357Y-16082976D01*
X13235833Y-16073452D01*
X13245357Y-16063928D01*
X13245357Y-16082976D01*
X13445357Y-16082976D02*
X13331071Y-16082976D01*
X13388214Y-16082976D02*
X13388214Y-15882976D01*
X13369167Y-15911548D01*
X13350119Y-15930595D01*
X13331071Y-15940119D01*
X13635833Y-16082976D02*
X13521548Y-16082976D01*
X13578690Y-16082976D02*
X13578690Y-15882976D01*
X13559643Y-15911548D01*
X13540595Y-15930595D01*
X13521548Y-15940119D01*
X13750119Y-15968690D02*
X13731071Y-15959167D01*
X13721548Y-15949643D01*
X13712024Y-15930595D01*
X13712024Y-15921071D01*
X13721548Y-15902024D01*
X13731071Y-15892500D01*
X13750119Y-15882976D01*
X13788214Y-15882976D01*
X13807262Y-15892500D01*
X13816786Y-15902024D01*
X13826309Y-15921071D01*
X13826309Y-15930595D01*
X13816786Y-15949643D01*
X13807262Y-15959167D01*
X13788214Y-15968690D01*
X13750119Y-15968690D01*
X13731071Y-15978214D01*
X13721548Y-15987738D01*
X13712024Y-16006786D01*
X13712024Y-16044881D01*
X13721548Y-16063928D01*
X13731071Y-16073452D01*
X13750119Y-16082976D01*
X13788214Y-16082976D01*
X13807262Y-16073452D01*
X13816786Y-16063928D01*
X13826309Y-16044881D01*
X13826309Y-16006786D01*
X13816786Y-15987738D01*
X13807262Y-15978214D01*
X13788214Y-15968690D01*
X14016786Y-16082976D02*
X13902500Y-16082976D01*
X13959643Y-16082976D02*
X13959643Y-15882976D01*
X13940595Y-15911548D01*
X13921548Y-15930595D01*
X13902500Y-15940119D01*
X14092976Y-15882976D02*
X14092976Y-15921071D01*
X14169167Y-15882976D02*
X14169167Y-15921071D01*
X14464405Y-16159167D02*
X14454881Y-16149643D01*
X14435833Y-16121071D01*
X14426309Y-16102024D01*
X14416786Y-16073452D01*
X14407262Y-16025833D01*
X14407262Y-15987738D01*
X14416786Y-15940119D01*
X14426309Y-15911548D01*
X14435833Y-15892500D01*
X14454881Y-15863928D01*
X14464405Y-15854405D01*
X14626309Y-15949643D02*
X14626309Y-16082976D01*
X14578690Y-15873452D02*
X14531071Y-16016309D01*
X14654881Y-16016309D01*
X14883452Y-16082976D02*
X14883452Y-15882976D01*
X14969167Y-16082976D02*
X14969167Y-15978214D01*
X14959643Y-15959167D01*
X14940595Y-15949643D01*
X14912024Y-15949643D01*
X14892976Y-15959167D01*
X14883452Y-15968690D01*
X15092976Y-16082976D02*
X15073928Y-16073452D01*
X15064405Y-16063928D01*
X15054881Y-16044881D01*
X15054881Y-15987738D01*
X15064405Y-15968690D01*
X15073928Y-15959167D01*
X15092976Y-15949643D01*
X15121548Y-15949643D01*
X15140595Y-15959167D01*
X15150119Y-15968690D01*
X15159643Y-15987738D01*
X15159643Y-16044881D01*
X15150119Y-16063928D01*
X15140595Y-16073452D01*
X15121548Y-16082976D01*
X15092976Y-16082976D01*
X15273928Y-16082976D02*
X15254881Y-16073452D01*
X15245357Y-16054405D01*
X15245357Y-15882976D01*
X15426309Y-16073452D02*
X15407262Y-16082976D01*
X15369167Y-16082976D01*
X15350119Y-16073452D01*
X15340595Y-16054405D01*
X15340595Y-15978214D01*
X15350119Y-15959167D01*
X15369167Y-15949643D01*
X15407262Y-15949643D01*
X15426309Y-15959167D01*
X15435833Y-15978214D01*
X15435833Y-15997262D01*
X15340595Y-16016309D01*
X15512024Y-16073452D02*
X15531071Y-16082976D01*
X15569167Y-16082976D01*
X15588214Y-16073452D01*
X15597738Y-16054405D01*
X15597738Y-16044881D01*
X15588214Y-16025833D01*
X15569167Y-16016309D01*
X15540595Y-16016309D01*
X15521548Y-16006786D01*
X15512024Y-15987738D01*
X15512024Y-15978214D01*
X15521548Y-15959167D01*
X15540595Y-15949643D01*
X15569167Y-15949643D01*
X15588214Y-15959167D01*
X15664405Y-16159167D02*
X15673928Y-16149643D01*
X15692976Y-16121071D01*
X15702500Y-16102024D01*
X15712024Y-16073452D01*
X15721548Y-16025833D01*
X15721548Y-15987738D01*
X15712024Y-15940119D01*
X15702500Y-15911548D01*
X15692976Y-15892500D01*
X15673928Y-15863928D01*
X15664405Y-15854405D01*
M02*
