%TF.GenerationSoftware,KiCad,Pcbnew,6.0.11-2627ca5db0~126~ubuntu20.04.1*%
%TF.CreationDate,2023-07-01T13:06:48-04:00*%
%TF.ProjectId,MoistureSensorBreakout,4d6f6973-7475-4726-9553-656e736f7242,rev?*%
%TF.SameCoordinates,Original*%
%TF.FileFunction,Drillmap*%
%TF.FilePolarity,Positive*%
%FSLAX45Y45*%
G04 Gerber Fmt 4.5, Leading zero omitted, Abs format (unit mm)*
G04 Created by KiCad (PCBNEW 6.0.11-2627ca5db0~126~ubuntu20.04.1) date 2023-07-01 13:06:48*
%MOMM*%
%LPD*%
G01*
G04 APERTURE LIST*
%ADD10C,0.150000*%
%ADD11C,0.200000*%
G04 APERTURE END LIST*
D10*
X10900000Y-4825000D02*
X18500000Y-4825000D01*
X18500000Y-4825000D02*
X18500000Y-14025000D01*
X18500000Y-14025000D02*
X10900000Y-14025000D01*
X10900000Y-14025000D02*
X10900000Y-4825000D01*
D11*
X11150119Y-14342976D02*
X11150119Y-14142976D01*
X11197738Y-14142976D01*
X11226309Y-14152500D01*
X11245357Y-14171548D01*
X11254881Y-14190595D01*
X11264405Y-14228690D01*
X11264405Y-14257262D01*
X11254881Y-14295357D01*
X11245357Y-14314405D01*
X11226309Y-14333452D01*
X11197738Y-14342976D01*
X11150119Y-14342976D01*
X11350119Y-14342976D02*
X11350119Y-14209643D01*
X11350119Y-14247738D02*
X11359643Y-14228690D01*
X11369167Y-14219167D01*
X11388214Y-14209643D01*
X11407262Y-14209643D01*
X11473928Y-14342976D02*
X11473928Y-14209643D01*
X11473928Y-14142976D02*
X11464405Y-14152500D01*
X11473928Y-14162024D01*
X11483452Y-14152500D01*
X11473928Y-14142976D01*
X11473928Y-14162024D01*
X11597738Y-14342976D02*
X11578690Y-14333452D01*
X11569167Y-14314405D01*
X11569167Y-14142976D01*
X11702500Y-14342976D02*
X11683452Y-14333452D01*
X11673928Y-14314405D01*
X11673928Y-14142976D01*
X11931071Y-14342976D02*
X11931071Y-14142976D01*
X11997738Y-14285833D01*
X12064405Y-14142976D01*
X12064405Y-14342976D01*
X12245357Y-14342976D02*
X12245357Y-14238214D01*
X12235833Y-14219167D01*
X12216786Y-14209643D01*
X12178690Y-14209643D01*
X12159643Y-14219167D01*
X12245357Y-14333452D02*
X12226309Y-14342976D01*
X12178690Y-14342976D01*
X12159643Y-14333452D01*
X12150119Y-14314405D01*
X12150119Y-14295357D01*
X12159643Y-14276309D01*
X12178690Y-14266786D01*
X12226309Y-14266786D01*
X12245357Y-14257262D01*
X12340595Y-14209643D02*
X12340595Y-14409643D01*
X12340595Y-14219167D02*
X12359643Y-14209643D01*
X12397738Y-14209643D01*
X12416786Y-14219167D01*
X12426309Y-14228690D01*
X12435833Y-14247738D01*
X12435833Y-14304881D01*
X12426309Y-14323928D01*
X12416786Y-14333452D01*
X12397738Y-14342976D01*
X12359643Y-14342976D01*
X12340595Y-14333452D01*
X12521548Y-14323928D02*
X12531071Y-14333452D01*
X12521548Y-14342976D01*
X12512024Y-14333452D01*
X12521548Y-14323928D01*
X12521548Y-14342976D01*
X12521548Y-14219167D02*
X12531071Y-14228690D01*
X12521548Y-14238214D01*
X12512024Y-14228690D01*
X12521548Y-14219167D01*
X12521548Y-14238214D01*
M02*
