G04 #@! TF.GenerationSoftware,KiCad,Pcbnew,6.0.11-2627ca5db0~126~ubuntu20.04.1*
G04 #@! TF.CreationDate,2023-07-01T13:06:28-04:00*
G04 #@! TF.ProjectId,MoistureSensorBreakout,4d6f6973-7475-4726-9553-656e736f7242,rev?*
G04 #@! TF.SameCoordinates,Original*
G04 #@! TF.FileFunction,Copper,L2,Bot*
G04 #@! TF.FilePolarity,Positive*
%FSLAX46Y46*%
G04 Gerber Fmt 4.6, Leading zero omitted, Abs format (unit mm)*
G04 Created by KiCad (PCBNEW 6.0.11-2627ca5db0~126~ubuntu20.04.1) date 2023-07-01 13:06:28*
%MOMM*%
%LPD*%
G01*
G04 APERTURE LIST*
G04 #@! TA.AperFunction,ComponentPad*
%ADD10R,1.700000X1.700000*%
G04 #@! TD*
G04 #@! TA.AperFunction,ComponentPad*
%ADD11O,1.700000X1.700000*%
G04 #@! TD*
G04 #@! TA.AperFunction,ComponentPad*
%ADD12R,1.600000X1.600000*%
G04 #@! TD*
G04 #@! TA.AperFunction,ComponentPad*
%ADD13O,1.600000X1.600000*%
G04 #@! TD*
G04 #@! TA.AperFunction,ComponentPad*
%ADD14C,2.000000*%
G04 #@! TD*
G04 #@! TA.AperFunction,ComponentPad*
%ADD15C,1.600000*%
G04 #@! TD*
G04 #@! TA.AperFunction,ComponentPad*
%ADD16O,1.000000X1.000000*%
G04 #@! TD*
G04 #@! TA.AperFunction,ComponentPad*
%ADD17R,1.000000X1.000000*%
G04 #@! TD*
G04 #@! TA.AperFunction,ViaPad*
%ADD18C,0.800000*%
G04 #@! TD*
G04 #@! TA.AperFunction,Conductor*
%ADD19C,0.800000*%
G04 #@! TD*
G04 #@! TA.AperFunction,Conductor*
%ADD20C,0.500000*%
G04 #@! TD*
G04 APERTURE END LIST*
D10*
X141500000Y-57250000D03*
D11*
X141500000Y-54710000D03*
X144040000Y-57250000D03*
X144040000Y-54710000D03*
X146580000Y-57250000D03*
X146580000Y-54710000D03*
X149120000Y-57250000D03*
X149120000Y-54710000D03*
X151660000Y-57250000D03*
X151660000Y-54710000D03*
D10*
X112000000Y-122000000D03*
D11*
X112000000Y-119460000D03*
X112000000Y-116920000D03*
X112000000Y-114380000D03*
X112000000Y-111840000D03*
X112000000Y-109300000D03*
X112000000Y-106760000D03*
D10*
X182000000Y-122000000D03*
D11*
X182000000Y-119460000D03*
X182000000Y-116920000D03*
X182000000Y-114380000D03*
X182000000Y-111840000D03*
X182000000Y-109300000D03*
X182000000Y-106760000D03*
D10*
X173000000Y-66000000D03*
D11*
X173000000Y-68540000D03*
D12*
X144000000Y-71060000D03*
D13*
X144000000Y-63440000D03*
D14*
X133250000Y-79000000D03*
X133250000Y-85500000D03*
X128750000Y-85500000D03*
X128750000Y-79000000D03*
X167250000Y-79000000D03*
X167250000Y-85500000D03*
X162750000Y-85500000D03*
X162750000Y-79000000D03*
D12*
X138000000Y-71060000D03*
D13*
X138000000Y-63440000D03*
D10*
X119000000Y-69000000D03*
D11*
X119000000Y-66460000D03*
D15*
X157000000Y-70810000D03*
D13*
X157000000Y-63190000D03*
D15*
X150000000Y-63190000D03*
D13*
X150000000Y-70810000D03*
D14*
X145250000Y-85500000D03*
X145250000Y-79000000D03*
X149750000Y-85500000D03*
X149750000Y-79000000D03*
D16*
X146230000Y-114170000D03*
X147500000Y-114170000D03*
X146230000Y-115440000D03*
X147500000Y-115440000D03*
X146230000Y-116710000D03*
X147500000Y-116710000D03*
X146230000Y-117980000D03*
X147500000Y-117980000D03*
X146230000Y-119250000D03*
X147500000Y-119250000D03*
X146230000Y-120520000D03*
X147500000Y-120520000D03*
X146230000Y-121790000D03*
D17*
X147500000Y-121790000D03*
D18*
X141000000Y-98000000D03*
X138000000Y-102000000D03*
X153000000Y-85000000D03*
X143250000Y-92500000D03*
D19*
X119000000Y-69000000D02*
X119000000Y-80000000D01*
X119000000Y-80000000D02*
X138000000Y-99000000D01*
X138000000Y-99000000D02*
X138000000Y-102000000D01*
D20*
X146230000Y-119250000D02*
X114330000Y-119250000D01*
D19*
X144000000Y-63440000D02*
X138000000Y-63440000D01*
X119000000Y-66460000D02*
X132460000Y-66460000D01*
X137060000Y-71060000D02*
X138000000Y-71060000D01*
X132460000Y-66460000D02*
X137060000Y-71060000D01*
X162750000Y-79000000D02*
X162750000Y-75750000D01*
X162750000Y-75750000D02*
X157810000Y-70810000D01*
X157810000Y-70810000D02*
X157000000Y-70810000D01*
X145250000Y-79000000D02*
X150000000Y-74250000D01*
X150000000Y-74250000D02*
X150000000Y-70810000D01*
X153000000Y-85000000D02*
X153000000Y-58590000D01*
X153000000Y-58590000D02*
X151660000Y-57250000D01*
X152500000Y-88250000D02*
X149750000Y-85500000D01*
X133250000Y-85500000D02*
X133250000Y-90250000D01*
X133250000Y-90250000D02*
X141000000Y-98000000D01*
X167250000Y-79000000D02*
X167250000Y-74290000D01*
X167250000Y-74290000D02*
X173000000Y-68540000D01*
X133250000Y-85500000D02*
X133250000Y-79000000D01*
X162750000Y-85500000D02*
X162750000Y-79000000D01*
X167250000Y-85500000D02*
X167250000Y-79000000D01*
X152500000Y-88250000D02*
X164500000Y-88250000D01*
X164500000Y-88250000D02*
X167250000Y-85500000D01*
X146580000Y-57250000D02*
X146580000Y-72420000D01*
X146580000Y-72420000D02*
X142000000Y-77000000D01*
X142000000Y-77000000D02*
X142000000Y-91250000D01*
X142000000Y-91250000D02*
X143250000Y-92500000D01*
D20*
X112000000Y-106760000D02*
X119410000Y-114170000D01*
X119410000Y-114170000D02*
X146230000Y-114170000D01*
X112000000Y-109300000D02*
X118140000Y-115440000D01*
X118140000Y-115440000D02*
X146230000Y-115440000D01*
X112000000Y-111840000D02*
X116870000Y-116710000D01*
X116870000Y-116710000D02*
X146230000Y-116710000D01*
X146230000Y-117980000D02*
X115600000Y-117980000D01*
X115600000Y-117980000D02*
X112000000Y-114380000D01*
X114330000Y-119250000D02*
X112000000Y-116920000D01*
X146230000Y-120520000D02*
X113060000Y-120520000D01*
X113060000Y-120520000D02*
X112000000Y-119460000D01*
X112000000Y-122000000D02*
X146020000Y-122000000D01*
X146020000Y-122000000D02*
X146230000Y-121790000D01*
X182000000Y-106760000D02*
X174590000Y-114170000D01*
X174590000Y-114170000D02*
X147500000Y-114170000D01*
X147500000Y-115440000D02*
X175860000Y-115440000D01*
X175860000Y-115440000D02*
X182000000Y-109300000D01*
X147500000Y-116710000D02*
X177130000Y-116710000D01*
X177130000Y-116710000D02*
X182000000Y-111840000D01*
X147500000Y-117980000D02*
X178400000Y-117980000D01*
X178400000Y-117980000D02*
X182000000Y-114380000D01*
X147500000Y-119250000D02*
X179670000Y-119250000D01*
X179670000Y-119250000D02*
X182000000Y-116920000D01*
X147500000Y-120520000D02*
X180940000Y-120520000D01*
X180940000Y-120520000D02*
X182000000Y-119460000D01*
X147500000Y-121790000D02*
X181790000Y-121790000D01*
X181790000Y-121790000D02*
X182000000Y-122000000D01*
D19*
X152500000Y-88250000D02*
X147500000Y-93250000D01*
X147500000Y-93250000D02*
X147500000Y-114170000D01*
X149750000Y-79000000D02*
X149750000Y-85500000D01*
X141500000Y-54710000D02*
X141500000Y-57250000D01*
X144040000Y-57250000D02*
X144040000Y-63400000D01*
X144040000Y-63400000D02*
X144000000Y-63440000D01*
X144040000Y-54710000D02*
X144040000Y-57250000D01*
X145250000Y-79000000D02*
X145250000Y-85500000D01*
M02*
