G04 #@! TF.GenerationSoftware,KiCad,Pcbnew,6.0.11-2627ca5db0~126~ubuntu20.04.1*
G04 #@! TF.CreationDate,2023-07-01T13:06:28-04:00*
G04 #@! TF.ProjectId,MoistureSensorBreakout,4d6f6973-7475-4726-9553-656e736f7242,rev?*
G04 #@! TF.SameCoordinates,Original*
G04 #@! TF.FileFunction,Legend,Bot*
G04 #@! TF.FilePolarity,Positive*
%FSLAX46Y46*%
G04 Gerber Fmt 4.6, Leading zero omitted, Abs format (unit mm)*
G04 Created by KiCad (PCBNEW 6.0.11-2627ca5db0~126~ubuntu20.04.1) date 2023-07-01 13:06:28*
%MOMM*%
%LPD*%
G01*
G04 APERTURE LIST*
%ADD10C,0.250000*%
%ADD11C,0.150000*%
%ADD12R,1.700000X1.700000*%
%ADD13O,1.700000X1.700000*%
%ADD14R,1.600000X1.600000*%
%ADD15O,1.600000X1.600000*%
%ADD16C,2.000000*%
%ADD17C,1.600000*%
%ADD18O,1.000000X1.000000*%
%ADD19R,1.000000X1.000000*%
G04 APERTURE END LIST*
D10*
X114238095Y-66532857D02*
X115761904Y-66532857D01*
X115000000Y-67294761D02*
X115000000Y-65770952D01*
X114238095Y-69752857D02*
X115761904Y-69752857D01*
X120857142Y-74321428D02*
X120952380Y-74464285D01*
X121238095Y-74607142D01*
X121428571Y-74607142D01*
X121714285Y-74464285D01*
X121904761Y-74178571D01*
X122000000Y-73892857D01*
X122095238Y-73321428D01*
X122095238Y-72892857D01*
X122000000Y-72321428D01*
X121904761Y-72035714D01*
X121714285Y-71750000D01*
X121428571Y-71607142D01*
X121238095Y-71607142D01*
X120952380Y-71750000D01*
X120857142Y-71892857D01*
X119142857Y-72607142D02*
X119142857Y-74607142D01*
X120000000Y-72607142D02*
X120000000Y-74178571D01*
X119904761Y-74464285D01*
X119714285Y-74607142D01*
X119428571Y-74607142D01*
X119238095Y-74464285D01*
X119142857Y-74321428D01*
X118190476Y-74607142D02*
X118190476Y-72607142D01*
X118190476Y-73178571D02*
X118095238Y-72892857D01*
X118000000Y-72750000D01*
X117809523Y-72607142D01*
X117619047Y-72607142D01*
X116952380Y-74607142D02*
X116952380Y-72607142D01*
X116952380Y-73178571D02*
X116857142Y-72892857D01*
X116761904Y-72750000D01*
X116571428Y-72607142D01*
X116380952Y-72607142D01*
X114952380Y-74464285D02*
X115142857Y-74607142D01*
X115523809Y-74607142D01*
X115714285Y-74464285D01*
X115809523Y-74178571D01*
X115809523Y-73035714D01*
X115714285Y-72750000D01*
X115523809Y-72607142D01*
X115142857Y-72607142D01*
X114952380Y-72750000D01*
X114857142Y-73035714D01*
X114857142Y-73321428D01*
X115809523Y-73607142D01*
X114000000Y-72607142D02*
X114000000Y-74607142D01*
X114000000Y-72892857D02*
X113904761Y-72750000D01*
X113714285Y-72607142D01*
X113428571Y-72607142D01*
X113238095Y-72750000D01*
X113142857Y-73035714D01*
X113142857Y-74607142D01*
X112476190Y-72607142D02*
X111714285Y-72607142D01*
X112190476Y-71607142D02*
X112190476Y-74178571D01*
X112095238Y-74464285D01*
X111904761Y-74607142D01*
X111714285Y-74607142D01*
X170726190Y-65857142D02*
X170059523Y-68857142D01*
X169392857Y-65857142D01*
X167583333Y-68571428D02*
X167678571Y-68714285D01*
X167964285Y-68857142D01*
X168154761Y-68857142D01*
X168440476Y-68714285D01*
X168630952Y-68428571D01*
X168726190Y-68142857D01*
X168821428Y-67571428D01*
X168821428Y-67142857D01*
X168726190Y-66571428D01*
X168630952Y-66285714D01*
X168440476Y-66000000D01*
X168154761Y-65857142D01*
X167964285Y-65857142D01*
X167678571Y-66000000D01*
X167583333Y-66142857D01*
X165869047Y-68857142D02*
X165869047Y-67285714D01*
X165964285Y-67000000D01*
X166154761Y-66857142D01*
X166535714Y-66857142D01*
X166726190Y-67000000D01*
X165869047Y-68714285D02*
X166059523Y-68857142D01*
X166535714Y-68857142D01*
X166726190Y-68714285D01*
X166821428Y-68428571D01*
X166821428Y-68142857D01*
X166726190Y-67857142D01*
X166535714Y-67714285D01*
X166059523Y-67714285D01*
X165869047Y-67571428D01*
X164916666Y-66857142D02*
X164916666Y-69857142D01*
X164916666Y-67000000D02*
X164726190Y-66857142D01*
X164345238Y-66857142D01*
X164154761Y-67000000D01*
X164059523Y-67142857D01*
X163964285Y-67428571D01*
X163964285Y-68285714D01*
X164059523Y-68571428D01*
X164154761Y-68714285D01*
X164345238Y-68857142D01*
X164726190Y-68857142D01*
X164916666Y-68714285D01*
X175988095Y-65532857D02*
X177511904Y-65532857D01*
X175988095Y-68752857D02*
X177511904Y-68752857D01*
X176750000Y-69514761D02*
X176750000Y-67990952D01*
D11*
X119411785Y-107419619D02*
X119240357Y-107495809D01*
X118954642Y-107495809D01*
X118840357Y-107419619D01*
X118783214Y-107343428D01*
X118726071Y-107191047D01*
X118726071Y-107038666D01*
X118783214Y-106886285D01*
X118840357Y-106810095D01*
X118954642Y-106733904D01*
X119183214Y-106657714D01*
X119297500Y-106581523D01*
X119354642Y-106505333D01*
X119411785Y-106352952D01*
X119411785Y-106200571D01*
X119354642Y-106048190D01*
X119297500Y-105972000D01*
X119183214Y-105895809D01*
X118897500Y-105895809D01*
X118726071Y-105972000D01*
X118326071Y-105895809D02*
X118040357Y-107495809D01*
X117811785Y-106352952D01*
X117583214Y-107495809D01*
X117297500Y-105895809D01*
X116840357Y-107495809D02*
X116840357Y-105895809D01*
X116554642Y-105895809D01*
X116383214Y-105972000D01*
X116268928Y-106124380D01*
X116211785Y-106276761D01*
X116154642Y-106581523D01*
X116154642Y-106810095D01*
X116211785Y-107114857D01*
X116268928Y-107267238D01*
X116383214Y-107419619D01*
X116554642Y-107495809D01*
X116840357Y-107495809D01*
X115640357Y-107495809D02*
X115640357Y-105895809D01*
X114840357Y-105895809D02*
X114611785Y-105895809D01*
X114497500Y-105972000D01*
X114383214Y-106124380D01*
X114326071Y-106429142D01*
X114326071Y-106962476D01*
X114383214Y-107267238D01*
X114497500Y-107419619D01*
X114611785Y-107495809D01*
X114840357Y-107495809D01*
X114954642Y-107419619D01*
X115068928Y-107267238D01*
X115126071Y-106962476D01*
X115126071Y-106429142D01*
X115068928Y-106124380D01*
X114954642Y-105972000D01*
X114840357Y-105895809D01*
X119754642Y-109995619D02*
X119583214Y-110071809D01*
X119297500Y-110071809D01*
X119183214Y-109995619D01*
X119126071Y-109919428D01*
X119068928Y-109767047D01*
X119068928Y-109614666D01*
X119126071Y-109462285D01*
X119183214Y-109386095D01*
X119297500Y-109309904D01*
X119526071Y-109233714D01*
X119640357Y-109157523D01*
X119697500Y-109081333D01*
X119754642Y-108928952D01*
X119754642Y-108776571D01*
X119697500Y-108624190D01*
X119640357Y-108548000D01*
X119526071Y-108471809D01*
X119240357Y-108471809D01*
X119068928Y-108548000D01*
X118668928Y-108471809D02*
X118383214Y-110071809D01*
X118154642Y-108928952D01*
X117926071Y-110071809D01*
X117640357Y-108471809D01*
X116497500Y-109919428D02*
X116554642Y-109995619D01*
X116726071Y-110071809D01*
X116840357Y-110071809D01*
X117011785Y-109995619D01*
X117126071Y-109843238D01*
X117183214Y-109690857D01*
X117240357Y-109386095D01*
X117240357Y-109157523D01*
X117183214Y-108852761D01*
X117126071Y-108700380D01*
X117011785Y-108548000D01*
X116840357Y-108471809D01*
X116726071Y-108471809D01*
X116554642Y-108548000D01*
X116497500Y-108624190D01*
X115411785Y-110071809D02*
X115983214Y-110071809D01*
X115983214Y-108471809D01*
X115011785Y-110071809D02*
X115011785Y-108471809D01*
X114326071Y-110071809D02*
X114840357Y-109157523D01*
X114326071Y-108471809D02*
X115011785Y-109386095D01*
X118326071Y-112647809D02*
X118326071Y-111047809D01*
X117640357Y-112647809D01*
X117640357Y-111047809D01*
X116383214Y-112647809D02*
X116783214Y-111885904D01*
X117068928Y-112647809D02*
X117068928Y-111047809D01*
X116611785Y-111047809D01*
X116497500Y-111124000D01*
X116440357Y-111200190D01*
X116383214Y-111352571D01*
X116383214Y-111581142D01*
X116440357Y-111733523D01*
X116497500Y-111809714D01*
X116611785Y-111885904D01*
X117068928Y-111885904D01*
X115926071Y-112571619D02*
X115754642Y-112647809D01*
X115468928Y-112647809D01*
X115354642Y-112571619D01*
X115297500Y-112495428D01*
X115240357Y-112343047D01*
X115240357Y-112190666D01*
X115297500Y-112038285D01*
X115354642Y-111962095D01*
X115468928Y-111885904D01*
X115697500Y-111809714D01*
X115811785Y-111733523D01*
X115868928Y-111657333D01*
X115926071Y-111504952D01*
X115926071Y-111352571D01*
X115868928Y-111200190D01*
X115811785Y-111124000D01*
X115697500Y-111047809D01*
X115411785Y-111047809D01*
X115240357Y-111124000D01*
X114897500Y-111047809D02*
X114211785Y-111047809D01*
X114554642Y-112647809D02*
X114554642Y-111047809D01*
X117126071Y-115223809D02*
X117126071Y-113623809D01*
X116840357Y-113623809D01*
X116668928Y-113700000D01*
X116554642Y-113852380D01*
X116497500Y-114004761D01*
X116440357Y-114309523D01*
X116440357Y-114538095D01*
X116497500Y-114842857D01*
X116554642Y-114995238D01*
X116668928Y-115147619D01*
X116840357Y-115223809D01*
X117126071Y-115223809D01*
X116097500Y-113623809D02*
X115411785Y-113623809D01*
X115754642Y-115223809D02*
X115754642Y-113623809D01*
X114326071Y-115223809D02*
X114726071Y-114461904D01*
X115011785Y-115223809D02*
X115011785Y-113623809D01*
X114554642Y-113623809D01*
X114440357Y-113700000D01*
X114383214Y-113776190D01*
X114326071Y-113928571D01*
X114326071Y-114157142D01*
X114383214Y-114309523D01*
X114440357Y-114385714D01*
X114554642Y-114461904D01*
X115011785Y-114461904D01*
X115468928Y-117799809D02*
X115868928Y-117037904D01*
X116154642Y-117799809D02*
X116154642Y-116199809D01*
X115697500Y-116199809D01*
X115583214Y-116276000D01*
X115526071Y-116352190D01*
X115468928Y-116504571D01*
X115468928Y-116733142D01*
X115526071Y-116885523D01*
X115583214Y-116961714D01*
X115697500Y-117037904D01*
X116154642Y-117037904D01*
X115068928Y-116199809D02*
X114268928Y-117799809D01*
X114268928Y-116199809D02*
X115068928Y-117799809D01*
X116040357Y-118775809D02*
X115354642Y-118775809D01*
X115697500Y-120375809D02*
X115697500Y-118775809D01*
X115068928Y-118775809D02*
X114268928Y-120375809D01*
X114268928Y-118775809D02*
X115068928Y-120375809D01*
X117411785Y-121351809D02*
X117011785Y-122951809D01*
X116611785Y-121351809D01*
X115526071Y-122799428D02*
X115583214Y-122875619D01*
X115754642Y-122951809D01*
X115868928Y-122951809D01*
X116040357Y-122875619D01*
X116154642Y-122723238D01*
X116211785Y-122570857D01*
X116268928Y-122266095D01*
X116268928Y-122037523D01*
X116211785Y-121732761D01*
X116154642Y-121580380D01*
X116040357Y-121428000D01*
X115868928Y-121351809D01*
X115754642Y-121351809D01*
X115583214Y-121428000D01*
X115526071Y-121504190D01*
X114326071Y-122799428D02*
X114383214Y-122875619D01*
X114554642Y-122951809D01*
X114668928Y-122951809D01*
X114840357Y-122875619D01*
X114954642Y-122723238D01*
X115011785Y-122570857D01*
X115068928Y-122266095D01*
X115068928Y-122037523D01*
X115011785Y-121732761D01*
X114954642Y-121580380D01*
X114840357Y-121428000D01*
X114668928Y-121351809D01*
X114554642Y-121351809D01*
X114383214Y-121428000D01*
X114326071Y-121504190D01*
X179288214Y-105895809D02*
X178888214Y-107495809D01*
X178488214Y-105895809D01*
X177402500Y-107343428D02*
X177459642Y-107419619D01*
X177631071Y-107495809D01*
X177745357Y-107495809D01*
X177916785Y-107419619D01*
X178031071Y-107267238D01*
X178088214Y-107114857D01*
X178145357Y-106810095D01*
X178145357Y-106581523D01*
X178088214Y-106276761D01*
X178031071Y-106124380D01*
X177916785Y-105972000D01*
X177745357Y-105895809D01*
X177631071Y-105895809D01*
X177459642Y-105972000D01*
X177402500Y-106048190D01*
X176373928Y-107495809D02*
X176373928Y-106657714D01*
X176431071Y-106505333D01*
X176545357Y-106429142D01*
X176773928Y-106429142D01*
X176888214Y-106505333D01*
X176373928Y-107419619D02*
X176488214Y-107495809D01*
X176773928Y-107495809D01*
X176888214Y-107419619D01*
X176945357Y-107267238D01*
X176945357Y-107114857D01*
X176888214Y-106962476D01*
X176773928Y-106886285D01*
X176488214Y-106886285D01*
X176373928Y-106810095D01*
X175802500Y-106429142D02*
X175802500Y-108029142D01*
X175802500Y-106505333D02*
X175688214Y-106429142D01*
X175459642Y-106429142D01*
X175345357Y-106505333D01*
X175288214Y-106581523D01*
X175231071Y-106733904D01*
X175231071Y-107191047D01*
X175288214Y-107343428D01*
X175345357Y-107419619D01*
X175459642Y-107495809D01*
X175688214Y-107495809D01*
X175802500Y-107419619D01*
X179116785Y-110071809D02*
X179116785Y-108471809D01*
X178659642Y-108471809D01*
X178545357Y-108548000D01*
X178488214Y-108624190D01*
X178431071Y-108776571D01*
X178431071Y-109005142D01*
X178488214Y-109157523D01*
X178545357Y-109233714D01*
X178659642Y-109309904D01*
X179116785Y-109309904D01*
X177402500Y-108471809D02*
X177631071Y-108471809D01*
X177745357Y-108548000D01*
X177802500Y-108624190D01*
X177916785Y-108852761D01*
X177973928Y-109157523D01*
X177973928Y-109767047D01*
X177916785Y-109919428D01*
X177859642Y-109995619D01*
X177745357Y-110071809D01*
X177516785Y-110071809D01*
X177402500Y-109995619D01*
X177345357Y-109919428D01*
X177288214Y-109767047D01*
X177288214Y-109386095D01*
X177345357Y-109233714D01*
X177402500Y-109157523D01*
X177516785Y-109081333D01*
X177745357Y-109081333D01*
X177859642Y-109157523D01*
X177916785Y-109233714D01*
X177973928Y-109386095D01*
X179116785Y-112647809D02*
X179116785Y-111047809D01*
X178659642Y-111047809D01*
X178545357Y-111124000D01*
X178488214Y-111200190D01*
X178431071Y-111352571D01*
X178431071Y-111581142D01*
X178488214Y-111733523D01*
X178545357Y-111809714D01*
X178659642Y-111885904D01*
X179116785Y-111885904D01*
X178031071Y-111047809D02*
X177231071Y-111047809D01*
X177745357Y-112647809D01*
X179116785Y-115223809D02*
X179116785Y-113623809D01*
X178659642Y-113623809D01*
X178545357Y-113700000D01*
X178488214Y-113776190D01*
X178431071Y-113928571D01*
X178431071Y-114157142D01*
X178488214Y-114309523D01*
X178545357Y-114385714D01*
X178659642Y-114461904D01*
X179116785Y-114461904D01*
X177745357Y-114309523D02*
X177859642Y-114233333D01*
X177916785Y-114157142D01*
X177973928Y-114004761D01*
X177973928Y-113928571D01*
X177916785Y-113776190D01*
X177859642Y-113700000D01*
X177745357Y-113623809D01*
X177516785Y-113623809D01*
X177402500Y-113700000D01*
X177345357Y-113776190D01*
X177288214Y-113928571D01*
X177288214Y-114004761D01*
X177345357Y-114157142D01*
X177402500Y-114233333D01*
X177516785Y-114309523D01*
X177745357Y-114309523D01*
X177859642Y-114385714D01*
X177916785Y-114461904D01*
X177973928Y-114614285D01*
X177973928Y-114919047D01*
X177916785Y-115071428D01*
X177859642Y-115147619D01*
X177745357Y-115223809D01*
X177516785Y-115223809D01*
X177402500Y-115147619D01*
X177345357Y-115071428D01*
X177288214Y-114919047D01*
X177288214Y-114614285D01*
X177345357Y-114461904D01*
X177402500Y-114385714D01*
X177516785Y-114309523D01*
X179116785Y-117799809D02*
X179116785Y-116199809D01*
X178659642Y-116199809D01*
X178545357Y-116276000D01*
X178488214Y-116352190D01*
X178431071Y-116504571D01*
X178431071Y-116733142D01*
X178488214Y-116885523D01*
X178545357Y-116961714D01*
X178659642Y-117037904D01*
X179116785Y-117037904D01*
X177859642Y-117799809D02*
X177631071Y-117799809D01*
X177516785Y-117723619D01*
X177459642Y-117647428D01*
X177345357Y-117418857D01*
X177288214Y-117114095D01*
X177288214Y-116504571D01*
X177345357Y-116352190D01*
X177402500Y-116276000D01*
X177516785Y-116199809D01*
X177745357Y-116199809D01*
X177859642Y-116276000D01*
X177916785Y-116352190D01*
X177973928Y-116504571D01*
X177973928Y-116885523D01*
X177916785Y-117037904D01*
X177859642Y-117114095D01*
X177745357Y-117190285D01*
X177516785Y-117190285D01*
X177402500Y-117114095D01*
X177345357Y-117037904D01*
X177288214Y-116885523D01*
X178431071Y-120223428D02*
X178488214Y-120299619D01*
X178659642Y-120375809D01*
X178773928Y-120375809D01*
X178945357Y-120299619D01*
X179059642Y-120147238D01*
X179116785Y-119994857D01*
X179173928Y-119690095D01*
X179173928Y-119461523D01*
X179116785Y-119156761D01*
X179059642Y-119004380D01*
X178945357Y-118852000D01*
X178773928Y-118775809D01*
X178659642Y-118775809D01*
X178488214Y-118852000D01*
X178431071Y-118928190D01*
X178088214Y-118775809D02*
X177402500Y-118775809D01*
X177745357Y-120375809D02*
X177745357Y-118775809D01*
X177059642Y-120299619D02*
X176888214Y-120375809D01*
X176602500Y-120375809D01*
X176488214Y-120299619D01*
X176431071Y-120223428D01*
X176373928Y-120071047D01*
X176373928Y-119918666D01*
X176431071Y-119766285D01*
X176488214Y-119690095D01*
X176602500Y-119613904D01*
X176831071Y-119537714D01*
X176945357Y-119461523D01*
X177002500Y-119385333D01*
X177059642Y-119232952D01*
X177059642Y-119080571D01*
X177002500Y-118928190D01*
X176945357Y-118852000D01*
X176831071Y-118775809D01*
X176545357Y-118775809D01*
X176373928Y-118852000D01*
X178488214Y-121428000D02*
X178602500Y-121351809D01*
X178773928Y-121351809D01*
X178945357Y-121428000D01*
X179059642Y-121580380D01*
X179116785Y-121732761D01*
X179173928Y-122037523D01*
X179173928Y-122266095D01*
X179116785Y-122570857D01*
X179059642Y-122723238D01*
X178945357Y-122875619D01*
X178773928Y-122951809D01*
X178659642Y-122951809D01*
X178488214Y-122875619D01*
X178431071Y-122799428D01*
X178431071Y-122266095D01*
X178659642Y-122266095D01*
X177916785Y-122951809D02*
X177916785Y-121351809D01*
X177231071Y-122951809D01*
X177231071Y-121351809D01*
X176659642Y-122951809D02*
X176659642Y-121351809D01*
X176373928Y-121351809D01*
X176202500Y-121428000D01*
X176088214Y-121580380D01*
X176031071Y-121732761D01*
X175973928Y-122037523D01*
X175973928Y-122266095D01*
X176031071Y-122570857D01*
X176088214Y-122723238D01*
X176202500Y-122875619D01*
X176373928Y-122951809D01*
X176659642Y-122951809D01*
%LPC*%
D12*
X141500000Y-57250000D03*
D13*
X141500000Y-54710000D03*
X144040000Y-57250000D03*
X144040000Y-54710000D03*
X146580000Y-57250000D03*
X146580000Y-54710000D03*
X149120000Y-57250000D03*
X149120000Y-54710000D03*
X151660000Y-57250000D03*
X151660000Y-54710000D03*
D12*
X112000000Y-122000000D03*
D13*
X112000000Y-119460000D03*
X112000000Y-116920000D03*
X112000000Y-114380000D03*
X112000000Y-111840000D03*
X112000000Y-109300000D03*
X112000000Y-106760000D03*
D12*
X182000000Y-122000000D03*
D13*
X182000000Y-119460000D03*
X182000000Y-116920000D03*
X182000000Y-114380000D03*
X182000000Y-111840000D03*
X182000000Y-109300000D03*
X182000000Y-106760000D03*
D12*
X173000000Y-66000000D03*
D13*
X173000000Y-68540000D03*
D14*
X144000000Y-71060000D03*
D15*
X144000000Y-63440000D03*
D16*
X133250000Y-79000000D03*
X133250000Y-85500000D03*
X128750000Y-85500000D03*
X128750000Y-79000000D03*
X167250000Y-79000000D03*
X167250000Y-85500000D03*
X162750000Y-85500000D03*
X162750000Y-79000000D03*
D14*
X138000000Y-71060000D03*
D15*
X138000000Y-63440000D03*
D12*
X119000000Y-69000000D03*
D13*
X119000000Y-66460000D03*
D17*
X157000000Y-70810000D03*
D15*
X157000000Y-63190000D03*
D17*
X150000000Y-63190000D03*
D15*
X150000000Y-70810000D03*
D16*
X145250000Y-85500000D03*
X145250000Y-79000000D03*
X149750000Y-85500000D03*
X149750000Y-79000000D03*
D18*
X146230000Y-114170000D03*
X147500000Y-114170000D03*
X146230000Y-115440000D03*
X147500000Y-115440000D03*
X146230000Y-116710000D03*
X147500000Y-116710000D03*
X146230000Y-117980000D03*
X147500000Y-117980000D03*
X146230000Y-119250000D03*
X147500000Y-119250000D03*
X146230000Y-120520000D03*
X147500000Y-120520000D03*
X146230000Y-121790000D03*
D19*
X147500000Y-121790000D03*
M02*
