G04 #@! TF.GenerationSoftware,KiCad,Pcbnew,6.0.11-2627ca5db0~126~ubuntu20.04.1*
G04 #@! TF.CreationDate,2023-07-01T13:06:28-04:00*
G04 #@! TF.ProjectId,MoistureSensorBreakout,4d6f6973-7475-4726-9553-656e736f7242,rev?*
G04 #@! TF.SameCoordinates,Original*
G04 #@! TF.FileFunction,Legend,Top*
G04 #@! TF.FilePolarity,Positive*
%FSLAX46Y46*%
G04 Gerber Fmt 4.6, Leading zero omitted, Abs format (unit mm)*
G04 Created by KiCad (PCBNEW 6.0.11-2627ca5db0~126~ubuntu20.04.1) date 2023-07-01 13:06:28*
%MOMM*%
%LPD*%
G01*
G04 APERTURE LIST*
%ADD10C,0.250000*%
%ADD11C,0.150000*%
%ADD12C,0.100000*%
%ADD13C,0.120000*%
%ADD14R,1.700000X1.700000*%
%ADD15O,1.700000X1.700000*%
%ADD16R,1.600000X1.600000*%
%ADD17O,1.600000X1.600000*%
%ADD18C,2.000000*%
%ADD19C,1.600000*%
%ADD20O,1.000000X1.000000*%
%ADD21R,1.000000X1.000000*%
G04 APERTURE END LIST*
D10*
X163817261Y-53618452D02*
X163817261Y-51118452D01*
X164222023Y-51118452D01*
X164464880Y-51237500D01*
X164626785Y-51475595D01*
X164707738Y-51713690D01*
X164788690Y-52189880D01*
X164788690Y-52547023D01*
X164707738Y-53023214D01*
X164626785Y-53261309D01*
X164464880Y-53499404D01*
X164222023Y-53618452D01*
X163817261Y-53618452D01*
X166164880Y-53499404D02*
X166002976Y-53618452D01*
X165679166Y-53618452D01*
X165517261Y-53499404D01*
X165436309Y-53261309D01*
X165436309Y-52308928D01*
X165517261Y-52070833D01*
X165679166Y-51951785D01*
X166002976Y-51951785D01*
X166164880Y-52070833D01*
X166245833Y-52308928D01*
X166245833Y-52547023D01*
X165436309Y-52785119D01*
X166893452Y-53499404D02*
X167055357Y-53618452D01*
X167379166Y-53618452D01*
X167541071Y-53499404D01*
X167622023Y-53261309D01*
X167622023Y-53142261D01*
X167541071Y-52904166D01*
X167379166Y-52785119D01*
X167136309Y-52785119D01*
X166974404Y-52666071D01*
X166893452Y-52427976D01*
X166893452Y-52308928D01*
X166974404Y-52070833D01*
X167136309Y-51951785D01*
X167379166Y-51951785D01*
X167541071Y-52070833D01*
X168350595Y-53618452D02*
X168350595Y-51951785D01*
X168350595Y-51118452D02*
X168269642Y-51237500D01*
X168350595Y-51356547D01*
X168431547Y-51237500D01*
X168350595Y-51118452D01*
X168350595Y-51356547D01*
X169888690Y-51951785D02*
X169888690Y-53975595D01*
X169807738Y-54213690D01*
X169726785Y-54332738D01*
X169564880Y-54451785D01*
X169322023Y-54451785D01*
X169160119Y-54332738D01*
X169888690Y-53499404D02*
X169726785Y-53618452D01*
X169402976Y-53618452D01*
X169241071Y-53499404D01*
X169160119Y-53380357D01*
X169079166Y-53142261D01*
X169079166Y-52427976D01*
X169160119Y-52189880D01*
X169241071Y-52070833D01*
X169402976Y-51951785D01*
X169726785Y-51951785D01*
X169888690Y-52070833D01*
X170698214Y-51951785D02*
X170698214Y-53618452D01*
X170698214Y-52189880D02*
X170779166Y-52070833D01*
X170941071Y-51951785D01*
X171183928Y-51951785D01*
X171345833Y-52070833D01*
X171426785Y-52308928D01*
X171426785Y-53618452D01*
X172883928Y-53499404D02*
X172722023Y-53618452D01*
X172398214Y-53618452D01*
X172236309Y-53499404D01*
X172155357Y-53261309D01*
X172155357Y-52308928D01*
X172236309Y-52070833D01*
X172398214Y-51951785D01*
X172722023Y-51951785D01*
X172883928Y-52070833D01*
X172964880Y-52308928D01*
X172964880Y-52547023D01*
X172155357Y-52785119D01*
X174422023Y-53618452D02*
X174422023Y-51118452D01*
X174422023Y-53499404D02*
X174260119Y-53618452D01*
X173936309Y-53618452D01*
X173774404Y-53499404D01*
X173693452Y-53380357D01*
X173612500Y-53142261D01*
X173612500Y-52427976D01*
X173693452Y-52189880D01*
X173774404Y-52070833D01*
X173936309Y-51951785D01*
X174260119Y-51951785D01*
X174422023Y-52070833D01*
X176526785Y-53618452D02*
X176526785Y-51118452D01*
X176526785Y-52070833D02*
X176688690Y-51951785D01*
X177012500Y-51951785D01*
X177174404Y-52070833D01*
X177255357Y-52189880D01*
X177336309Y-52427976D01*
X177336309Y-53142261D01*
X177255357Y-53380357D01*
X177174404Y-53499404D01*
X177012500Y-53618452D01*
X176688690Y-53618452D01*
X176526785Y-53499404D01*
X177902976Y-51951785D02*
X178307738Y-53618452D01*
X178712500Y-51951785D02*
X178307738Y-53618452D01*
X178145833Y-54213690D01*
X178064880Y-54332738D01*
X177902976Y-54451785D01*
X163736309Y-56929166D02*
X164545833Y-56929166D01*
X163574404Y-57643452D02*
X164141071Y-55143452D01*
X164707738Y-57643452D01*
X165274404Y-57643452D02*
X165274404Y-55976785D01*
X165274404Y-56214880D02*
X165355357Y-56095833D01*
X165517261Y-55976785D01*
X165760119Y-55976785D01*
X165922023Y-56095833D01*
X166002976Y-56333928D01*
X166002976Y-57643452D01*
X166002976Y-56333928D02*
X166083928Y-56095833D01*
X166245833Y-55976785D01*
X166488690Y-55976785D01*
X166650595Y-56095833D01*
X166731547Y-56333928D01*
X166731547Y-57643452D01*
X168188690Y-57524404D02*
X168026785Y-57643452D01*
X167702976Y-57643452D01*
X167541071Y-57524404D01*
X167460119Y-57286309D01*
X167460119Y-56333928D01*
X167541071Y-56095833D01*
X167702976Y-55976785D01*
X168026785Y-55976785D01*
X168188690Y-56095833D01*
X168269642Y-56333928D01*
X168269642Y-56572023D01*
X167460119Y-56810119D01*
X169241071Y-57643452D02*
X169079166Y-57524404D01*
X168998214Y-57286309D01*
X168998214Y-55143452D01*
X169888690Y-57643452D02*
X169888690Y-55976785D01*
X169888690Y-55143452D02*
X169807738Y-55262500D01*
X169888690Y-55381547D01*
X169969642Y-55262500D01*
X169888690Y-55143452D01*
X169888690Y-55381547D01*
X171426785Y-57643452D02*
X171426785Y-56333928D01*
X171345833Y-56095833D01*
X171183928Y-55976785D01*
X170860119Y-55976785D01*
X170698214Y-56095833D01*
X171426785Y-57524404D02*
X171264880Y-57643452D01*
X170860119Y-57643452D01*
X170698214Y-57524404D01*
X170617261Y-57286309D01*
X170617261Y-57048214D01*
X170698214Y-56810119D01*
X170860119Y-56691071D01*
X171264880Y-56691071D01*
X171426785Y-56572023D01*
X173450595Y-57524404D02*
X173693452Y-57643452D01*
X174098214Y-57643452D01*
X174260119Y-57524404D01*
X174341071Y-57405357D01*
X174422023Y-57167261D01*
X174422023Y-56929166D01*
X174341071Y-56691071D01*
X174260119Y-56572023D01*
X174098214Y-56452976D01*
X173774404Y-56333928D01*
X173612500Y-56214880D01*
X173531547Y-56095833D01*
X173450595Y-55857738D01*
X173450595Y-55619642D01*
X173531547Y-55381547D01*
X173612500Y-55262500D01*
X173774404Y-55143452D01*
X174179166Y-55143452D01*
X174422023Y-55262500D01*
X175879166Y-57524404D02*
X175717261Y-57643452D01*
X175393452Y-57643452D01*
X175231547Y-57524404D01*
X175150595Y-57405357D01*
X175069642Y-57167261D01*
X175069642Y-56452976D01*
X175150595Y-56214880D01*
X175231547Y-56095833D01*
X175393452Y-55976785D01*
X175717261Y-55976785D01*
X175879166Y-56095833D01*
X176850595Y-57643452D02*
X176688690Y-57524404D01*
X176607738Y-57405357D01*
X176526785Y-57167261D01*
X176526785Y-56452976D01*
X176607738Y-56214880D01*
X176688690Y-56095833D01*
X176850595Y-55976785D01*
X177093452Y-55976785D01*
X177255357Y-56095833D01*
X177336309Y-56214880D01*
X177417261Y-56452976D01*
X177417261Y-57167261D01*
X177336309Y-57405357D01*
X177255357Y-57524404D01*
X177093452Y-57643452D01*
X176850595Y-57643452D01*
X177902976Y-55976785D02*
X178550595Y-55976785D01*
X178145833Y-55143452D02*
X178145833Y-57286309D01*
X178226785Y-57524404D01*
X178388690Y-57643452D01*
X178550595Y-57643452D01*
X178874404Y-55976785D02*
X179522023Y-55976785D01*
X179117261Y-55143452D02*
X179117261Y-57286309D01*
X179198214Y-57524404D01*
X179360119Y-57643452D01*
X179522023Y-57643452D01*
X111735714Y-52058928D02*
X111978571Y-52177976D01*
X112059523Y-52297023D01*
X112140476Y-52535119D01*
X112140476Y-52892261D01*
X112059523Y-53130357D01*
X111978571Y-53249404D01*
X111816666Y-53368452D01*
X111169047Y-53368452D01*
X111169047Y-50868452D01*
X111735714Y-50868452D01*
X111897619Y-50987500D01*
X111978571Y-51106547D01*
X112059523Y-51344642D01*
X112059523Y-51582738D01*
X111978571Y-51820833D01*
X111897619Y-51939880D01*
X111735714Y-52058928D01*
X111169047Y-52058928D01*
X113678571Y-53368452D02*
X112869047Y-53368452D01*
X112869047Y-50868452D01*
X114245238Y-52058928D02*
X114811904Y-52058928D01*
X115054761Y-53368452D02*
X114245238Y-53368452D01*
X114245238Y-50868452D01*
X115054761Y-50868452D01*
X117078571Y-53368452D02*
X117078571Y-50868452D01*
X117645238Y-52654166D01*
X118211904Y-50868452D01*
X118211904Y-53368452D01*
X119264285Y-53368452D02*
X119102380Y-53249404D01*
X119021428Y-53130357D01*
X118940476Y-52892261D01*
X118940476Y-52177976D01*
X119021428Y-51939880D01*
X119102380Y-51820833D01*
X119264285Y-51701785D01*
X119507142Y-51701785D01*
X119669047Y-51820833D01*
X119750000Y-51939880D01*
X119830952Y-52177976D01*
X119830952Y-52892261D01*
X119750000Y-53130357D01*
X119669047Y-53249404D01*
X119507142Y-53368452D01*
X119264285Y-53368452D01*
X120559523Y-53368452D02*
X120559523Y-51701785D01*
X120559523Y-50868452D02*
X120478571Y-50987500D01*
X120559523Y-51106547D01*
X120640476Y-50987500D01*
X120559523Y-50868452D01*
X120559523Y-51106547D01*
X121288095Y-53249404D02*
X121450000Y-53368452D01*
X121773809Y-53368452D01*
X121935714Y-53249404D01*
X122016666Y-53011309D01*
X122016666Y-52892261D01*
X121935714Y-52654166D01*
X121773809Y-52535119D01*
X121530952Y-52535119D01*
X121369047Y-52416071D01*
X121288095Y-52177976D01*
X121288095Y-52058928D01*
X121369047Y-51820833D01*
X121530952Y-51701785D01*
X121773809Y-51701785D01*
X121935714Y-51820833D01*
X122502380Y-51701785D02*
X123150000Y-51701785D01*
X122745238Y-50868452D02*
X122745238Y-53011309D01*
X122826190Y-53249404D01*
X122988095Y-53368452D01*
X123150000Y-53368452D01*
X124445238Y-51701785D02*
X124445238Y-53368452D01*
X123716666Y-51701785D02*
X123716666Y-53011309D01*
X123797619Y-53249404D01*
X123959523Y-53368452D01*
X124202380Y-53368452D01*
X124364285Y-53249404D01*
X124445238Y-53130357D01*
X125254761Y-53368452D02*
X125254761Y-51701785D01*
X125254761Y-52177976D02*
X125335714Y-51939880D01*
X125416666Y-51820833D01*
X125578571Y-51701785D01*
X125740476Y-51701785D01*
X126954761Y-53249404D02*
X126792857Y-53368452D01*
X126469047Y-53368452D01*
X126307142Y-53249404D01*
X126226190Y-53011309D01*
X126226190Y-52058928D01*
X126307142Y-51820833D01*
X126469047Y-51701785D01*
X126792857Y-51701785D01*
X126954761Y-51820833D01*
X127035714Y-52058928D01*
X127035714Y-52297023D01*
X126226190Y-52535119D01*
X128978571Y-53249404D02*
X129221428Y-53368452D01*
X129626190Y-53368452D01*
X129788095Y-53249404D01*
X129869047Y-53130357D01*
X129950000Y-52892261D01*
X129950000Y-52654166D01*
X129869047Y-52416071D01*
X129788095Y-52297023D01*
X129626190Y-52177976D01*
X129302380Y-52058928D01*
X129140476Y-51939880D01*
X129059523Y-51820833D01*
X128978571Y-51582738D01*
X128978571Y-51344642D01*
X129059523Y-51106547D01*
X129140476Y-50987500D01*
X129302380Y-50868452D01*
X129707142Y-50868452D01*
X129950000Y-50987500D01*
X131326190Y-53249404D02*
X131164285Y-53368452D01*
X130840476Y-53368452D01*
X130678571Y-53249404D01*
X130597619Y-53011309D01*
X130597619Y-52058928D01*
X130678571Y-51820833D01*
X130840476Y-51701785D01*
X131164285Y-51701785D01*
X131326190Y-51820833D01*
X131407142Y-52058928D01*
X131407142Y-52297023D01*
X130597619Y-52535119D01*
X132135714Y-51701785D02*
X132135714Y-53368452D01*
X132135714Y-51939880D02*
X132216666Y-51820833D01*
X132378571Y-51701785D01*
X132621428Y-51701785D01*
X132783333Y-51820833D01*
X132864285Y-52058928D01*
X132864285Y-53368452D01*
X133592857Y-53249404D02*
X133754761Y-53368452D01*
X134078571Y-53368452D01*
X134240476Y-53249404D01*
X134321428Y-53011309D01*
X134321428Y-52892261D01*
X134240476Y-52654166D01*
X134078571Y-52535119D01*
X133835714Y-52535119D01*
X133673809Y-52416071D01*
X133592857Y-52177976D01*
X133592857Y-52058928D01*
X133673809Y-51820833D01*
X133835714Y-51701785D01*
X134078571Y-51701785D01*
X134240476Y-51820833D01*
X135292857Y-53368452D02*
X135130952Y-53249404D01*
X135050000Y-53130357D01*
X134969047Y-52892261D01*
X134969047Y-52177976D01*
X135050000Y-51939880D01*
X135130952Y-51820833D01*
X135292857Y-51701785D01*
X135535714Y-51701785D01*
X135697619Y-51820833D01*
X135778571Y-51939880D01*
X135859523Y-52177976D01*
X135859523Y-52892261D01*
X135778571Y-53130357D01*
X135697619Y-53249404D01*
X135535714Y-53368452D01*
X135292857Y-53368452D01*
X136588095Y-53368452D02*
X136588095Y-51701785D01*
X136588095Y-52177976D02*
X136669047Y-51939880D01*
X136750000Y-51820833D01*
X136911904Y-51701785D01*
X137073809Y-51701785D01*
X111654761Y-56083928D02*
X111897619Y-56202976D01*
X111978571Y-56322023D01*
X112059523Y-56560119D01*
X112059523Y-56917261D01*
X111978571Y-57155357D01*
X111897619Y-57274404D01*
X111735714Y-57393452D01*
X111088095Y-57393452D01*
X111088095Y-54893452D01*
X111654761Y-54893452D01*
X111816666Y-55012500D01*
X111897619Y-55131547D01*
X111978571Y-55369642D01*
X111978571Y-55607738D01*
X111897619Y-55845833D01*
X111816666Y-55964880D01*
X111654761Y-56083928D01*
X111088095Y-56083928D01*
X112788095Y-57393452D02*
X112788095Y-55726785D01*
X112788095Y-56202976D02*
X112869047Y-55964880D01*
X112950000Y-55845833D01*
X113111904Y-55726785D01*
X113273809Y-55726785D01*
X114488095Y-57274404D02*
X114326190Y-57393452D01*
X114002380Y-57393452D01*
X113840476Y-57274404D01*
X113759523Y-57036309D01*
X113759523Y-56083928D01*
X113840476Y-55845833D01*
X114002380Y-55726785D01*
X114326190Y-55726785D01*
X114488095Y-55845833D01*
X114569047Y-56083928D01*
X114569047Y-56322023D01*
X113759523Y-56560119D01*
X116026190Y-57393452D02*
X116026190Y-56083928D01*
X115945238Y-55845833D01*
X115783333Y-55726785D01*
X115459523Y-55726785D01*
X115297619Y-55845833D01*
X116026190Y-57274404D02*
X115864285Y-57393452D01*
X115459523Y-57393452D01*
X115297619Y-57274404D01*
X115216666Y-57036309D01*
X115216666Y-56798214D01*
X115297619Y-56560119D01*
X115459523Y-56441071D01*
X115864285Y-56441071D01*
X116026190Y-56322023D01*
X116835714Y-57393452D02*
X116835714Y-54893452D01*
X116997619Y-56441071D02*
X117483333Y-57393452D01*
X117483333Y-55726785D02*
X116835714Y-56679166D01*
X118454761Y-57393452D02*
X118292857Y-57274404D01*
X118211904Y-57155357D01*
X118130952Y-56917261D01*
X118130952Y-56202976D01*
X118211904Y-55964880D01*
X118292857Y-55845833D01*
X118454761Y-55726785D01*
X118697619Y-55726785D01*
X118859523Y-55845833D01*
X118940476Y-55964880D01*
X119021428Y-56202976D01*
X119021428Y-56917261D01*
X118940476Y-57155357D01*
X118859523Y-57274404D01*
X118697619Y-57393452D01*
X118454761Y-57393452D01*
X120478571Y-55726785D02*
X120478571Y-57393452D01*
X119750000Y-55726785D02*
X119750000Y-57036309D01*
X119830952Y-57274404D01*
X119992857Y-57393452D01*
X120235714Y-57393452D01*
X120397619Y-57274404D01*
X120478571Y-57155357D01*
X121045238Y-55726785D02*
X121692857Y-55726785D01*
X121288095Y-54893452D02*
X121288095Y-57036309D01*
X121369047Y-57274404D01*
X121530952Y-57393452D01*
X121692857Y-57393452D01*
X124121428Y-56083928D02*
X124364285Y-56202976D01*
X124445238Y-56322023D01*
X124526190Y-56560119D01*
X124526190Y-56917261D01*
X124445238Y-57155357D01*
X124364285Y-57274404D01*
X124202380Y-57393452D01*
X123554761Y-57393452D01*
X123554761Y-54893452D01*
X124121428Y-54893452D01*
X124283333Y-55012500D01*
X124364285Y-55131547D01*
X124445238Y-55369642D01*
X124445238Y-55607738D01*
X124364285Y-55845833D01*
X124283333Y-55964880D01*
X124121428Y-56083928D01*
X123554761Y-56083928D01*
X125497619Y-57393452D02*
X125335714Y-57274404D01*
X125254761Y-57155357D01*
X125173809Y-56917261D01*
X125173809Y-56202976D01*
X125254761Y-55964880D01*
X125335714Y-55845833D01*
X125497619Y-55726785D01*
X125740476Y-55726785D01*
X125902380Y-55845833D01*
X125983333Y-55964880D01*
X126064285Y-56202976D01*
X126064285Y-56917261D01*
X125983333Y-57155357D01*
X125902380Y-57274404D01*
X125740476Y-57393452D01*
X125497619Y-57393452D01*
X127521428Y-57393452D02*
X127521428Y-56083928D01*
X127440476Y-55845833D01*
X127278571Y-55726785D01*
X126954761Y-55726785D01*
X126792857Y-55845833D01*
X127521428Y-57274404D02*
X127359523Y-57393452D01*
X126954761Y-57393452D01*
X126792857Y-57274404D01*
X126711904Y-57036309D01*
X126711904Y-56798214D01*
X126792857Y-56560119D01*
X126954761Y-56441071D01*
X127359523Y-56441071D01*
X127521428Y-56322023D01*
X128330952Y-57393452D02*
X128330952Y-55726785D01*
X128330952Y-56202976D02*
X128411904Y-55964880D01*
X128492857Y-55845833D01*
X128654761Y-55726785D01*
X128816666Y-55726785D01*
X130111904Y-57393452D02*
X130111904Y-54893452D01*
X130111904Y-57274404D02*
X129950000Y-57393452D01*
X129626190Y-57393452D01*
X129464285Y-57274404D01*
X129383333Y-57155357D01*
X129302380Y-56917261D01*
X129302380Y-56202976D01*
X129383333Y-55964880D01*
X129464285Y-55845833D01*
X129626190Y-55726785D01*
X129950000Y-55726785D01*
X130111904Y-55845833D01*
X131973809Y-54893452D02*
X132540476Y-57393452D01*
X133107142Y-54893452D01*
X134564285Y-57393452D02*
X133592857Y-57393452D01*
X134078571Y-57393452D02*
X134078571Y-54893452D01*
X133916666Y-55250595D01*
X133754761Y-55488690D01*
X133592857Y-55607738D01*
X135292857Y-57155357D02*
X135373809Y-57274404D01*
X135292857Y-57393452D01*
X135211904Y-57274404D01*
X135292857Y-57155357D01*
X135292857Y-57393452D01*
X136992857Y-57393452D02*
X136021428Y-57393452D01*
X136507142Y-57393452D02*
X136507142Y-54893452D01*
X136345238Y-55250595D01*
X136183333Y-55488690D01*
X136021428Y-55607738D01*
X158392857Y-75857142D02*
X158392857Y-72857142D01*
X158869047Y-72857142D01*
X159154761Y-73000000D01*
X159345238Y-73285714D01*
X159440476Y-73571428D01*
X159535714Y-74142857D01*
X159535714Y-74571428D01*
X159440476Y-75142857D01*
X159345238Y-75428571D01*
X159154761Y-75714285D01*
X158869047Y-75857142D01*
X158392857Y-75857142D01*
X160392857Y-75857142D02*
X160392857Y-73857142D01*
X160392857Y-72857142D02*
X160297619Y-73000000D01*
X160392857Y-73142857D01*
X160488095Y-73000000D01*
X160392857Y-72857142D01*
X160392857Y-73142857D01*
X161250000Y-75714285D02*
X161440476Y-75857142D01*
X161821428Y-75857142D01*
X162011904Y-75714285D01*
X162107142Y-75428571D01*
X162107142Y-75285714D01*
X162011904Y-75000000D01*
X161821428Y-74857142D01*
X161535714Y-74857142D01*
X161345238Y-74714285D01*
X161250000Y-74428571D01*
X161250000Y-74285714D01*
X161345238Y-74000000D01*
X161535714Y-73857142D01*
X161821428Y-73857142D01*
X162011904Y-74000000D01*
X163821428Y-75714285D02*
X163630952Y-75857142D01*
X163250000Y-75857142D01*
X163059523Y-75714285D01*
X162964285Y-75571428D01*
X162869047Y-75285714D01*
X162869047Y-74428571D01*
X162964285Y-74142857D01*
X163059523Y-74000000D01*
X163250000Y-73857142D01*
X163630952Y-73857142D01*
X163821428Y-74000000D01*
X164678571Y-75857142D02*
X164678571Y-72857142D01*
X165535714Y-75857142D02*
X165535714Y-74285714D01*
X165440476Y-74000000D01*
X165250000Y-73857142D01*
X164964285Y-73857142D01*
X164773809Y-74000000D01*
X164678571Y-74142857D01*
X167345238Y-75857142D02*
X167345238Y-74285714D01*
X167250000Y-74000000D01*
X167059523Y-73857142D01*
X166678571Y-73857142D01*
X166488095Y-74000000D01*
X167345238Y-75714285D02*
X167154761Y-75857142D01*
X166678571Y-75857142D01*
X166488095Y-75714285D01*
X166392857Y-75428571D01*
X166392857Y-75142857D01*
X166488095Y-74857142D01*
X166678571Y-74714285D01*
X167154761Y-74714285D01*
X167345238Y-74571428D01*
X168297619Y-75857142D02*
X168297619Y-73857142D01*
X168297619Y-74428571D02*
X168392857Y-74142857D01*
X168488095Y-74000000D01*
X168678571Y-73857142D01*
X168869047Y-73857142D01*
X170392857Y-73857142D02*
X170392857Y-76285714D01*
X170297619Y-76571428D01*
X170202380Y-76714285D01*
X170011904Y-76857142D01*
X169726190Y-76857142D01*
X169535714Y-76714285D01*
X170392857Y-75714285D02*
X170202380Y-75857142D01*
X169821428Y-75857142D01*
X169630952Y-75714285D01*
X169535714Y-75571428D01*
X169440476Y-75285714D01*
X169440476Y-74428571D01*
X169535714Y-74142857D01*
X169630952Y-74000000D01*
X169821428Y-73857142D01*
X170202380Y-73857142D01*
X170392857Y-74000000D01*
X172107142Y-75714285D02*
X171916666Y-75857142D01*
X171535714Y-75857142D01*
X171345238Y-75714285D01*
X171250000Y-75428571D01*
X171250000Y-74285714D01*
X171345238Y-74000000D01*
X171535714Y-73857142D01*
X171916666Y-73857142D01*
X172107142Y-74000000D01*
X172202380Y-74285714D01*
X172202380Y-74571428D01*
X171250000Y-74857142D01*
X143928571Y-75571428D02*
X143833333Y-75714285D01*
X143547619Y-75857142D01*
X143357142Y-75857142D01*
X143071428Y-75714285D01*
X142880952Y-75428571D01*
X142785714Y-75142857D01*
X142690476Y-74571428D01*
X142690476Y-74142857D01*
X142785714Y-73571428D01*
X142880952Y-73285714D01*
X143071428Y-73000000D01*
X143357142Y-72857142D01*
X143547619Y-72857142D01*
X143833333Y-73000000D01*
X143928571Y-73142857D01*
X144785714Y-75857142D02*
X144785714Y-72857142D01*
X145642857Y-75857142D02*
X145642857Y-74285714D01*
X145547619Y-74000000D01*
X145357142Y-73857142D01*
X145071428Y-73857142D01*
X144880952Y-74000000D01*
X144785714Y-74142857D01*
X147452380Y-75857142D02*
X147452380Y-74285714D01*
X147357142Y-74000000D01*
X147166666Y-73857142D01*
X146785714Y-73857142D01*
X146595238Y-74000000D01*
X147452380Y-75714285D02*
X147261904Y-75857142D01*
X146785714Y-75857142D01*
X146595238Y-75714285D01*
X146500000Y-75428571D01*
X146500000Y-75142857D01*
X146595238Y-74857142D01*
X146785714Y-74714285D01*
X147261904Y-74714285D01*
X147452380Y-74571428D01*
X148404761Y-75857142D02*
X148404761Y-73857142D01*
X148404761Y-74428571D02*
X148500000Y-74142857D01*
X148595238Y-74000000D01*
X148785714Y-73857142D01*
X148976190Y-73857142D01*
X150500000Y-73857142D02*
X150500000Y-76285714D01*
X150404761Y-76571428D01*
X150309523Y-76714285D01*
X150119047Y-76857142D01*
X149833333Y-76857142D01*
X149642857Y-76714285D01*
X150500000Y-75714285D02*
X150309523Y-75857142D01*
X149928571Y-75857142D01*
X149738095Y-75714285D01*
X149642857Y-75571428D01*
X149547619Y-75285714D01*
X149547619Y-74428571D01*
X149642857Y-74142857D01*
X149738095Y-74000000D01*
X149928571Y-73857142D01*
X150309523Y-73857142D01*
X150500000Y-74000000D01*
X152214285Y-75714285D02*
X152023809Y-75857142D01*
X151642857Y-75857142D01*
X151452380Y-75714285D01*
X151357142Y-75428571D01*
X151357142Y-74285714D01*
X151452380Y-74000000D01*
X151642857Y-73857142D01*
X152023809Y-73857142D01*
X152214285Y-74000000D01*
X152309523Y-74285714D01*
X152309523Y-74571428D01*
X151357142Y-74857142D01*
X128523809Y-75857142D02*
X127857142Y-74428571D01*
X127380952Y-75857142D02*
X127380952Y-72857142D01*
X128142857Y-72857142D01*
X128333333Y-73000000D01*
X128428571Y-73142857D01*
X128523809Y-73428571D01*
X128523809Y-73857142D01*
X128428571Y-74142857D01*
X128333333Y-74285714D01*
X128142857Y-74428571D01*
X127380952Y-74428571D01*
X130142857Y-75714285D02*
X129952380Y-75857142D01*
X129571428Y-75857142D01*
X129380952Y-75714285D01*
X129285714Y-75428571D01*
X129285714Y-74285714D01*
X129380952Y-74000000D01*
X129571428Y-73857142D01*
X129952380Y-73857142D01*
X130142857Y-74000000D01*
X130238095Y-74285714D01*
X130238095Y-74571428D01*
X129285714Y-74857142D01*
X131000000Y-75714285D02*
X131190476Y-75857142D01*
X131571428Y-75857142D01*
X131761904Y-75714285D01*
X131857142Y-75428571D01*
X131857142Y-75285714D01*
X131761904Y-75000000D01*
X131571428Y-74857142D01*
X131285714Y-74857142D01*
X131095238Y-74714285D01*
X131000000Y-74428571D01*
X131000000Y-74285714D01*
X131095238Y-74000000D01*
X131285714Y-73857142D01*
X131571428Y-73857142D01*
X131761904Y-74000000D01*
X133476190Y-75714285D02*
X133285714Y-75857142D01*
X132904761Y-75857142D01*
X132714285Y-75714285D01*
X132619047Y-75428571D01*
X132619047Y-74285714D01*
X132714285Y-74000000D01*
X132904761Y-73857142D01*
X133285714Y-73857142D01*
X133476190Y-74000000D01*
X133571428Y-74285714D01*
X133571428Y-74571428D01*
X132619047Y-74857142D01*
X134142857Y-73857142D02*
X134904761Y-73857142D01*
X134428571Y-72857142D02*
X134428571Y-75428571D01*
X134523809Y-75714285D01*
X134714285Y-75857142D01*
X134904761Y-75857142D01*
D11*
X114326071Y-107419619D02*
X114497500Y-107495809D01*
X114783214Y-107495809D01*
X114897500Y-107419619D01*
X114954642Y-107343428D01*
X115011785Y-107191047D01*
X115011785Y-107038666D01*
X114954642Y-106886285D01*
X114897500Y-106810095D01*
X114783214Y-106733904D01*
X114554642Y-106657714D01*
X114440357Y-106581523D01*
X114383214Y-106505333D01*
X114326071Y-106352952D01*
X114326071Y-106200571D01*
X114383214Y-106048190D01*
X114440357Y-105972000D01*
X114554642Y-105895809D01*
X114840357Y-105895809D01*
X115011785Y-105972000D01*
X115411785Y-105895809D02*
X115697500Y-107495809D01*
X115926071Y-106352952D01*
X116154642Y-107495809D01*
X116440357Y-105895809D01*
X116897500Y-107495809D02*
X116897500Y-105895809D01*
X117183214Y-105895809D01*
X117354642Y-105972000D01*
X117468928Y-106124380D01*
X117526071Y-106276761D01*
X117583214Y-106581523D01*
X117583214Y-106810095D01*
X117526071Y-107114857D01*
X117468928Y-107267238D01*
X117354642Y-107419619D01*
X117183214Y-107495809D01*
X116897500Y-107495809D01*
X118097500Y-107495809D02*
X118097500Y-105895809D01*
X118897500Y-105895809D02*
X119126071Y-105895809D01*
X119240357Y-105972000D01*
X119354642Y-106124380D01*
X119411785Y-106429142D01*
X119411785Y-106962476D01*
X119354642Y-107267238D01*
X119240357Y-107419619D01*
X119126071Y-107495809D01*
X118897500Y-107495809D01*
X118783214Y-107419619D01*
X118668928Y-107267238D01*
X118611785Y-106962476D01*
X118611785Y-106429142D01*
X118668928Y-106124380D01*
X118783214Y-105972000D01*
X118897500Y-105895809D01*
X114326071Y-109995619D02*
X114497500Y-110071809D01*
X114783214Y-110071809D01*
X114897500Y-109995619D01*
X114954642Y-109919428D01*
X115011785Y-109767047D01*
X115011785Y-109614666D01*
X114954642Y-109462285D01*
X114897500Y-109386095D01*
X114783214Y-109309904D01*
X114554642Y-109233714D01*
X114440357Y-109157523D01*
X114383214Y-109081333D01*
X114326071Y-108928952D01*
X114326071Y-108776571D01*
X114383214Y-108624190D01*
X114440357Y-108548000D01*
X114554642Y-108471809D01*
X114840357Y-108471809D01*
X115011785Y-108548000D01*
X115411785Y-108471809D02*
X115697500Y-110071809D01*
X115926071Y-108928952D01*
X116154642Y-110071809D01*
X116440357Y-108471809D01*
X117583214Y-109919428D02*
X117526071Y-109995619D01*
X117354642Y-110071809D01*
X117240357Y-110071809D01*
X117068928Y-109995619D01*
X116954642Y-109843238D01*
X116897500Y-109690857D01*
X116840357Y-109386095D01*
X116840357Y-109157523D01*
X116897500Y-108852761D01*
X116954642Y-108700380D01*
X117068928Y-108548000D01*
X117240357Y-108471809D01*
X117354642Y-108471809D01*
X117526071Y-108548000D01*
X117583214Y-108624190D01*
X118668928Y-110071809D02*
X118097500Y-110071809D01*
X118097500Y-108471809D01*
X119068928Y-110071809D02*
X119068928Y-108471809D01*
X119754642Y-110071809D02*
X119240357Y-109157523D01*
X119754642Y-108471809D02*
X119068928Y-109386095D01*
X114383214Y-112647809D02*
X114383214Y-111047809D01*
X115068928Y-112647809D01*
X115068928Y-111047809D01*
X116326071Y-112647809D02*
X115926071Y-111885904D01*
X115640357Y-112647809D02*
X115640357Y-111047809D01*
X116097500Y-111047809D01*
X116211785Y-111124000D01*
X116268928Y-111200190D01*
X116326071Y-111352571D01*
X116326071Y-111581142D01*
X116268928Y-111733523D01*
X116211785Y-111809714D01*
X116097500Y-111885904D01*
X115640357Y-111885904D01*
X116783214Y-112571619D02*
X116954642Y-112647809D01*
X117240357Y-112647809D01*
X117354642Y-112571619D01*
X117411785Y-112495428D01*
X117468928Y-112343047D01*
X117468928Y-112190666D01*
X117411785Y-112038285D01*
X117354642Y-111962095D01*
X117240357Y-111885904D01*
X117011785Y-111809714D01*
X116897500Y-111733523D01*
X116840357Y-111657333D01*
X116783214Y-111504952D01*
X116783214Y-111352571D01*
X116840357Y-111200190D01*
X116897500Y-111124000D01*
X117011785Y-111047809D01*
X117297500Y-111047809D01*
X117468928Y-111124000D01*
X117811785Y-111047809D02*
X118497500Y-111047809D01*
X118154642Y-112647809D02*
X118154642Y-111047809D01*
X114383214Y-115223809D02*
X114383214Y-113623809D01*
X114668928Y-113623809D01*
X114840357Y-113700000D01*
X114954642Y-113852380D01*
X115011785Y-114004761D01*
X115068928Y-114309523D01*
X115068928Y-114538095D01*
X115011785Y-114842857D01*
X114954642Y-114995238D01*
X114840357Y-115147619D01*
X114668928Y-115223809D01*
X114383214Y-115223809D01*
X115411785Y-113623809D02*
X116097500Y-113623809D01*
X115754642Y-115223809D02*
X115754642Y-113623809D01*
X117183214Y-115223809D02*
X116783214Y-114461904D01*
X116497500Y-115223809D02*
X116497500Y-113623809D01*
X116954642Y-113623809D01*
X117068928Y-113700000D01*
X117126071Y-113776190D01*
X117183214Y-113928571D01*
X117183214Y-114157142D01*
X117126071Y-114309523D01*
X117068928Y-114385714D01*
X116954642Y-114461904D01*
X116497500Y-114461904D01*
X115068928Y-117799809D02*
X114668928Y-117037904D01*
X114383214Y-117799809D02*
X114383214Y-116199809D01*
X114840357Y-116199809D01*
X114954642Y-116276000D01*
X115011785Y-116352190D01*
X115068928Y-116504571D01*
X115068928Y-116733142D01*
X115011785Y-116885523D01*
X114954642Y-116961714D01*
X114840357Y-117037904D01*
X114383214Y-117037904D01*
X115468928Y-116199809D02*
X116268928Y-117799809D01*
X116268928Y-116199809D02*
X115468928Y-117799809D01*
X114211785Y-118775809D02*
X114897500Y-118775809D01*
X114554642Y-120375809D02*
X114554642Y-118775809D01*
X115183214Y-118775809D02*
X115983214Y-120375809D01*
X115983214Y-118775809D02*
X115183214Y-120375809D01*
X114211785Y-121351809D02*
X114611785Y-122951809D01*
X115011785Y-121351809D01*
X116097500Y-122799428D02*
X116040357Y-122875619D01*
X115868928Y-122951809D01*
X115754642Y-122951809D01*
X115583214Y-122875619D01*
X115468928Y-122723238D01*
X115411785Y-122570857D01*
X115354642Y-122266095D01*
X115354642Y-122037523D01*
X115411785Y-121732761D01*
X115468928Y-121580380D01*
X115583214Y-121428000D01*
X115754642Y-121351809D01*
X115868928Y-121351809D01*
X116040357Y-121428000D01*
X116097500Y-121504190D01*
X117297500Y-122799428D02*
X117240357Y-122875619D01*
X117068928Y-122951809D01*
X116954642Y-122951809D01*
X116783214Y-122875619D01*
X116668928Y-122723238D01*
X116611785Y-122570857D01*
X116554642Y-122266095D01*
X116554642Y-122037523D01*
X116611785Y-121732761D01*
X116668928Y-121580380D01*
X116783214Y-121428000D01*
X116954642Y-121351809D01*
X117068928Y-121351809D01*
X117240357Y-121428000D01*
X117297500Y-121504190D01*
X175116785Y-105895809D02*
X175516785Y-107495809D01*
X175916785Y-105895809D01*
X177002500Y-107343428D02*
X176945357Y-107419619D01*
X176773928Y-107495809D01*
X176659642Y-107495809D01*
X176488214Y-107419619D01*
X176373928Y-107267238D01*
X176316785Y-107114857D01*
X176259642Y-106810095D01*
X176259642Y-106581523D01*
X176316785Y-106276761D01*
X176373928Y-106124380D01*
X176488214Y-105972000D01*
X176659642Y-105895809D01*
X176773928Y-105895809D01*
X176945357Y-105972000D01*
X177002500Y-106048190D01*
X178031071Y-107495809D02*
X178031071Y-106657714D01*
X177973928Y-106505333D01*
X177859642Y-106429142D01*
X177631071Y-106429142D01*
X177516785Y-106505333D01*
X178031071Y-107419619D02*
X177916785Y-107495809D01*
X177631071Y-107495809D01*
X177516785Y-107419619D01*
X177459642Y-107267238D01*
X177459642Y-107114857D01*
X177516785Y-106962476D01*
X177631071Y-106886285D01*
X177916785Y-106886285D01*
X178031071Y-106810095D01*
X178602500Y-106429142D02*
X178602500Y-108029142D01*
X178602500Y-106505333D02*
X178716785Y-106429142D01*
X178945357Y-106429142D01*
X179059642Y-106505333D01*
X179116785Y-106581523D01*
X179173928Y-106733904D01*
X179173928Y-107191047D01*
X179116785Y-107343428D01*
X179059642Y-107419619D01*
X178945357Y-107495809D01*
X178716785Y-107495809D01*
X178602500Y-107419619D01*
X177345357Y-110071809D02*
X177345357Y-108471809D01*
X177802500Y-108471809D01*
X177916785Y-108548000D01*
X177973928Y-108624190D01*
X178031071Y-108776571D01*
X178031071Y-109005142D01*
X177973928Y-109157523D01*
X177916785Y-109233714D01*
X177802500Y-109309904D01*
X177345357Y-109309904D01*
X179059642Y-108471809D02*
X178831071Y-108471809D01*
X178716785Y-108548000D01*
X178659642Y-108624190D01*
X178545357Y-108852761D01*
X178488214Y-109157523D01*
X178488214Y-109767047D01*
X178545357Y-109919428D01*
X178602500Y-109995619D01*
X178716785Y-110071809D01*
X178945357Y-110071809D01*
X179059642Y-109995619D01*
X179116785Y-109919428D01*
X179173928Y-109767047D01*
X179173928Y-109386095D01*
X179116785Y-109233714D01*
X179059642Y-109157523D01*
X178945357Y-109081333D01*
X178716785Y-109081333D01*
X178602500Y-109157523D01*
X178545357Y-109233714D01*
X178488214Y-109386095D01*
X177345357Y-112647809D02*
X177345357Y-111047809D01*
X177802500Y-111047809D01*
X177916785Y-111124000D01*
X177973928Y-111200190D01*
X178031071Y-111352571D01*
X178031071Y-111581142D01*
X177973928Y-111733523D01*
X177916785Y-111809714D01*
X177802500Y-111885904D01*
X177345357Y-111885904D01*
X178431071Y-111047809D02*
X179231071Y-111047809D01*
X178716785Y-112647809D01*
X177345357Y-115223809D02*
X177345357Y-113623809D01*
X177802500Y-113623809D01*
X177916785Y-113700000D01*
X177973928Y-113776190D01*
X178031071Y-113928571D01*
X178031071Y-114157142D01*
X177973928Y-114309523D01*
X177916785Y-114385714D01*
X177802500Y-114461904D01*
X177345357Y-114461904D01*
X178716785Y-114309523D02*
X178602500Y-114233333D01*
X178545357Y-114157142D01*
X178488214Y-114004761D01*
X178488214Y-113928571D01*
X178545357Y-113776190D01*
X178602500Y-113700000D01*
X178716785Y-113623809D01*
X178945357Y-113623809D01*
X179059642Y-113700000D01*
X179116785Y-113776190D01*
X179173928Y-113928571D01*
X179173928Y-114004761D01*
X179116785Y-114157142D01*
X179059642Y-114233333D01*
X178945357Y-114309523D01*
X178716785Y-114309523D01*
X178602500Y-114385714D01*
X178545357Y-114461904D01*
X178488214Y-114614285D01*
X178488214Y-114919047D01*
X178545357Y-115071428D01*
X178602500Y-115147619D01*
X178716785Y-115223809D01*
X178945357Y-115223809D01*
X179059642Y-115147619D01*
X179116785Y-115071428D01*
X179173928Y-114919047D01*
X179173928Y-114614285D01*
X179116785Y-114461904D01*
X179059642Y-114385714D01*
X178945357Y-114309523D01*
X177345357Y-117799809D02*
X177345357Y-116199809D01*
X177802500Y-116199809D01*
X177916785Y-116276000D01*
X177973928Y-116352190D01*
X178031071Y-116504571D01*
X178031071Y-116733142D01*
X177973928Y-116885523D01*
X177916785Y-116961714D01*
X177802500Y-117037904D01*
X177345357Y-117037904D01*
X178602500Y-117799809D02*
X178831071Y-117799809D01*
X178945357Y-117723619D01*
X179002500Y-117647428D01*
X179116785Y-117418857D01*
X179173928Y-117114095D01*
X179173928Y-116504571D01*
X179116785Y-116352190D01*
X179059642Y-116276000D01*
X178945357Y-116199809D01*
X178716785Y-116199809D01*
X178602500Y-116276000D01*
X178545357Y-116352190D01*
X178488214Y-116504571D01*
X178488214Y-116885523D01*
X178545357Y-117037904D01*
X178602500Y-117114095D01*
X178716785Y-117190285D01*
X178945357Y-117190285D01*
X179059642Y-117114095D01*
X179116785Y-117037904D01*
X179173928Y-116885523D01*
X177116785Y-120223428D02*
X177059642Y-120299619D01*
X176888214Y-120375809D01*
X176773928Y-120375809D01*
X176602500Y-120299619D01*
X176488214Y-120147238D01*
X176431071Y-119994857D01*
X176373928Y-119690095D01*
X176373928Y-119461523D01*
X176431071Y-119156761D01*
X176488214Y-119004380D01*
X176602500Y-118852000D01*
X176773928Y-118775809D01*
X176888214Y-118775809D01*
X177059642Y-118852000D01*
X177116785Y-118928190D01*
X177459642Y-118775809D02*
X178145357Y-118775809D01*
X177802500Y-120375809D02*
X177802500Y-118775809D01*
X178488214Y-120299619D02*
X178659642Y-120375809D01*
X178945357Y-120375809D01*
X179059642Y-120299619D01*
X179116785Y-120223428D01*
X179173928Y-120071047D01*
X179173928Y-119918666D01*
X179116785Y-119766285D01*
X179059642Y-119690095D01*
X178945357Y-119613904D01*
X178716785Y-119537714D01*
X178602500Y-119461523D01*
X178545357Y-119385333D01*
X178488214Y-119232952D01*
X178488214Y-119080571D01*
X178545357Y-118928190D01*
X178602500Y-118852000D01*
X178716785Y-118775809D01*
X179002500Y-118775809D01*
X179173928Y-118852000D01*
X176659642Y-121428000D02*
X176545357Y-121351809D01*
X176373928Y-121351809D01*
X176202500Y-121428000D01*
X176088214Y-121580380D01*
X176031071Y-121732761D01*
X175973928Y-122037523D01*
X175973928Y-122266095D01*
X176031071Y-122570857D01*
X176088214Y-122723238D01*
X176202500Y-122875619D01*
X176373928Y-122951809D01*
X176488214Y-122951809D01*
X176659642Y-122875619D01*
X176716785Y-122799428D01*
X176716785Y-122266095D01*
X176488214Y-122266095D01*
X177231071Y-122951809D02*
X177231071Y-121351809D01*
X177916785Y-122951809D01*
X177916785Y-121351809D01*
X178488214Y-122951809D02*
X178488214Y-121351809D01*
X178773928Y-121351809D01*
X178945357Y-121428000D01*
X179059642Y-121580380D01*
X179116785Y-121732761D01*
X179173928Y-122037523D01*
X179173928Y-122266095D01*
X179116785Y-122570857D01*
X179059642Y-122723238D01*
X178945357Y-122875619D01*
X178773928Y-122951809D01*
X178488214Y-122951809D01*
D10*
X114238095Y-66532857D02*
X115761904Y-66532857D01*
X115000000Y-67294761D02*
X115000000Y-65770952D01*
X114238095Y-69752857D02*
X115761904Y-69752857D01*
X112892857Y-74321428D02*
X112797619Y-74464285D01*
X112511904Y-74607142D01*
X112321428Y-74607142D01*
X112035714Y-74464285D01*
X111845238Y-74178571D01*
X111750000Y-73892857D01*
X111654761Y-73321428D01*
X111654761Y-72892857D01*
X111750000Y-72321428D01*
X111845238Y-72035714D01*
X112035714Y-71750000D01*
X112321428Y-71607142D01*
X112511904Y-71607142D01*
X112797619Y-71750000D01*
X112892857Y-71892857D01*
X114607142Y-72607142D02*
X114607142Y-74607142D01*
X113750000Y-72607142D02*
X113750000Y-74178571D01*
X113845238Y-74464285D01*
X114035714Y-74607142D01*
X114321428Y-74607142D01*
X114511904Y-74464285D01*
X114607142Y-74321428D01*
X115559523Y-74607142D02*
X115559523Y-72607142D01*
X115559523Y-73178571D02*
X115654761Y-72892857D01*
X115750000Y-72750000D01*
X115940476Y-72607142D01*
X116130952Y-72607142D01*
X116797619Y-74607142D02*
X116797619Y-72607142D01*
X116797619Y-73178571D02*
X116892857Y-72892857D01*
X116988095Y-72750000D01*
X117178571Y-72607142D01*
X117369047Y-72607142D01*
X118797619Y-74464285D02*
X118607142Y-74607142D01*
X118226190Y-74607142D01*
X118035714Y-74464285D01*
X117940476Y-74178571D01*
X117940476Y-73035714D01*
X118035714Y-72750000D01*
X118226190Y-72607142D01*
X118607142Y-72607142D01*
X118797619Y-72750000D01*
X118892857Y-73035714D01*
X118892857Y-73321428D01*
X117940476Y-73607142D01*
X119750000Y-72607142D02*
X119750000Y-74607142D01*
X119750000Y-72892857D02*
X119845238Y-72750000D01*
X120035714Y-72607142D01*
X120321428Y-72607142D01*
X120511904Y-72750000D01*
X120607142Y-73035714D01*
X120607142Y-74607142D01*
X121273809Y-72607142D02*
X122035714Y-72607142D01*
X121559523Y-71607142D02*
X121559523Y-74178571D01*
X121654761Y-74464285D01*
X121845238Y-74607142D01*
X122035714Y-74607142D01*
X175988095Y-65532857D02*
X177511904Y-65532857D01*
X175988095Y-68752857D02*
X177511904Y-68752857D01*
X176750000Y-69514761D02*
X176750000Y-67990952D01*
X163773809Y-65857142D02*
X164440476Y-68857142D01*
X165107142Y-65857142D01*
X166916666Y-68571428D02*
X166821428Y-68714285D01*
X166535714Y-68857142D01*
X166345238Y-68857142D01*
X166059523Y-68714285D01*
X165869047Y-68428571D01*
X165773809Y-68142857D01*
X165678571Y-67571428D01*
X165678571Y-67142857D01*
X165773809Y-66571428D01*
X165869047Y-66285714D01*
X166059523Y-66000000D01*
X166345238Y-65857142D01*
X166535714Y-65857142D01*
X166821428Y-66000000D01*
X166916666Y-66142857D01*
X168630952Y-68857142D02*
X168630952Y-67285714D01*
X168535714Y-67000000D01*
X168345238Y-66857142D01*
X167964285Y-66857142D01*
X167773809Y-67000000D01*
X168630952Y-68714285D02*
X168440476Y-68857142D01*
X167964285Y-68857142D01*
X167773809Y-68714285D01*
X167678571Y-68428571D01*
X167678571Y-68142857D01*
X167773809Y-67857142D01*
X167964285Y-67714285D01*
X168440476Y-67714285D01*
X168630952Y-67571428D01*
X169583333Y-66857142D02*
X169583333Y-69857142D01*
X169583333Y-67000000D02*
X169773809Y-66857142D01*
X170154761Y-66857142D01*
X170345238Y-67000000D01*
X170440476Y-67142857D01*
X170535714Y-67428571D01*
X170535714Y-68285714D01*
X170440476Y-68571428D01*
X170345238Y-68714285D01*
X170154761Y-68857142D01*
X169773809Y-68857142D01*
X169583333Y-68714285D01*
D11*
X135625000Y-102715000D02*
X161125000Y-102715000D01*
X161125000Y-102715000D02*
X161125000Y-139000000D01*
X161125000Y-139000000D02*
X135625000Y-139000000D01*
X135625000Y-139000000D02*
X135625000Y-102715000D01*
X142000000Y-123165000D02*
X142000000Y-112915000D01*
D12*
X142362619Y-113862904D02*
X142529285Y-114662904D01*
X142695952Y-113862904D01*
X143148333Y-114586714D02*
X143124523Y-114624809D01*
X143053095Y-114662904D01*
X143005476Y-114662904D01*
X142934047Y-114624809D01*
X142886428Y-114548619D01*
X142862619Y-114472428D01*
X142838809Y-114320047D01*
X142838809Y-114205761D01*
X142862619Y-114053380D01*
X142886428Y-113977190D01*
X142934047Y-113901000D01*
X143005476Y-113862904D01*
X143053095Y-113862904D01*
X143124523Y-113901000D01*
X143148333Y-113939095D01*
X143576904Y-114662904D02*
X143576904Y-114243857D01*
X143553095Y-114167666D01*
X143505476Y-114129571D01*
X143410238Y-114129571D01*
X143362619Y-114167666D01*
X143576904Y-114624809D02*
X143529285Y-114662904D01*
X143410238Y-114662904D01*
X143362619Y-114624809D01*
X143338809Y-114548619D01*
X143338809Y-114472428D01*
X143362619Y-114396238D01*
X143410238Y-114358142D01*
X143529285Y-114358142D01*
X143576904Y-114320047D01*
X143815000Y-114129571D02*
X143815000Y-114929571D01*
X143815000Y-114167666D02*
X143862619Y-114129571D01*
X143957857Y-114129571D01*
X144005476Y-114167666D01*
X144029285Y-114205761D01*
X144053095Y-114281952D01*
X144053095Y-114510523D01*
X144029285Y-114586714D01*
X144005476Y-114624809D01*
X143957857Y-114662904D01*
X143862619Y-114662904D01*
X143815000Y-114624809D01*
X142648333Y-115150904D02*
X142553095Y-115150904D01*
X142505476Y-115189000D01*
X142481666Y-115227095D01*
X142434047Y-115341380D01*
X142410238Y-115493761D01*
X142410238Y-115798523D01*
X142434047Y-115874714D01*
X142457857Y-115912809D01*
X142505476Y-115950904D01*
X142600714Y-115950904D01*
X142648333Y-115912809D01*
X142672142Y-115874714D01*
X142695952Y-115798523D01*
X142695952Y-115608047D01*
X142672142Y-115531857D01*
X142648333Y-115493761D01*
X142600714Y-115455666D01*
X142505476Y-115455666D01*
X142457857Y-115493761D01*
X142434047Y-115531857D01*
X142410238Y-115608047D01*
X142386428Y-116438904D02*
X142719761Y-116438904D01*
X142505476Y-117238904D01*
X142505476Y-118069761D02*
X142457857Y-118031666D01*
X142434047Y-117993571D01*
X142410238Y-117917380D01*
X142410238Y-117879285D01*
X142434047Y-117803095D01*
X142457857Y-117765000D01*
X142505476Y-117726904D01*
X142600714Y-117726904D01*
X142648333Y-117765000D01*
X142672142Y-117803095D01*
X142695952Y-117879285D01*
X142695952Y-117917380D01*
X142672142Y-117993571D01*
X142648333Y-118031666D01*
X142600714Y-118069761D01*
X142505476Y-118069761D01*
X142457857Y-118107857D01*
X142434047Y-118145952D01*
X142410238Y-118222142D01*
X142410238Y-118374523D01*
X142434047Y-118450714D01*
X142457857Y-118488809D01*
X142505476Y-118526904D01*
X142600714Y-118526904D01*
X142648333Y-118488809D01*
X142672142Y-118450714D01*
X142695952Y-118374523D01*
X142695952Y-118222142D01*
X142672142Y-118145952D01*
X142648333Y-118107857D01*
X142600714Y-118069761D01*
X142457857Y-119814904D02*
X142553095Y-119814904D01*
X142600714Y-119776809D01*
X142624523Y-119738714D01*
X142672142Y-119624428D01*
X142695952Y-119472047D01*
X142695952Y-119167285D01*
X142672142Y-119091095D01*
X142648333Y-119053000D01*
X142600714Y-119014904D01*
X142505476Y-119014904D01*
X142457857Y-119053000D01*
X142434047Y-119091095D01*
X142410238Y-119167285D01*
X142410238Y-119357761D01*
X142434047Y-119433952D01*
X142457857Y-119472047D01*
X142505476Y-119510142D01*
X142600714Y-119510142D01*
X142648333Y-119472047D01*
X142672142Y-119433952D01*
X142695952Y-119357761D01*
X142695952Y-121102904D02*
X142410238Y-121102904D01*
X142553095Y-121102904D02*
X142553095Y-120302904D01*
X142505476Y-120417190D01*
X142457857Y-120493380D01*
X142410238Y-120531476D01*
X143005476Y-120302904D02*
X143053095Y-120302904D01*
X143100714Y-120341000D01*
X143124523Y-120379095D01*
X143148333Y-120455285D01*
X143172142Y-120607666D01*
X143172142Y-120798142D01*
X143148333Y-120950523D01*
X143124523Y-121026714D01*
X143100714Y-121064809D01*
X143053095Y-121102904D01*
X143005476Y-121102904D01*
X142957857Y-121064809D01*
X142934047Y-121026714D01*
X142910238Y-120950523D01*
X142886428Y-120798142D01*
X142886428Y-120607666D01*
X142910238Y-120455285D01*
X142934047Y-120379095D01*
X142957857Y-120341000D01*
X143005476Y-120302904D01*
X142695952Y-121629000D02*
X142648333Y-121590904D01*
X142576904Y-121590904D01*
X142505476Y-121629000D01*
X142457857Y-121705190D01*
X142434047Y-121781380D01*
X142410238Y-121933761D01*
X142410238Y-122048047D01*
X142434047Y-122200428D01*
X142457857Y-122276619D01*
X142505476Y-122352809D01*
X142576904Y-122390904D01*
X142624523Y-122390904D01*
X142695952Y-122352809D01*
X142719761Y-122314714D01*
X142719761Y-122048047D01*
X142624523Y-122048047D01*
X142934047Y-122390904D02*
X142934047Y-121590904D01*
X143219761Y-122390904D01*
X143219761Y-121590904D01*
X143457857Y-122390904D02*
X143457857Y-121590904D01*
X143576904Y-121590904D01*
X143648333Y-121629000D01*
X143695952Y-121705190D01*
X143719761Y-121781380D01*
X143743571Y-121933761D01*
X143743571Y-122048047D01*
X143719761Y-122200428D01*
X143695952Y-122276619D01*
X143648333Y-122352809D01*
X143576904Y-122390904D01*
X143457857Y-122390904D01*
X139470714Y-114624809D02*
X139542142Y-114662904D01*
X139661190Y-114662904D01*
X139708809Y-114624809D01*
X139732619Y-114586714D01*
X139756428Y-114510523D01*
X139756428Y-114434333D01*
X139732619Y-114358142D01*
X139708809Y-114320047D01*
X139661190Y-114281952D01*
X139565952Y-114243857D01*
X139518333Y-114205761D01*
X139494523Y-114167666D01*
X139470714Y-114091476D01*
X139470714Y-114015285D01*
X139494523Y-113939095D01*
X139518333Y-113901000D01*
X139565952Y-113862904D01*
X139685000Y-113862904D01*
X139756428Y-113901000D01*
X139923095Y-113862904D02*
X140042142Y-114662904D01*
X140137380Y-114091476D01*
X140232619Y-114662904D01*
X140351666Y-113862904D01*
X140542142Y-114662904D02*
X140542142Y-113862904D01*
X140661190Y-113862904D01*
X140732619Y-113901000D01*
X140780238Y-113977190D01*
X140804047Y-114053380D01*
X140827857Y-114205761D01*
X140827857Y-114320047D01*
X140804047Y-114472428D01*
X140780238Y-114548619D01*
X140732619Y-114624809D01*
X140661190Y-114662904D01*
X140542142Y-114662904D01*
X141042142Y-114662904D02*
X141042142Y-113862904D01*
X141375476Y-113862904D02*
X141470714Y-113862904D01*
X141518333Y-113901000D01*
X141565952Y-113977190D01*
X141589761Y-114129571D01*
X141589761Y-114396238D01*
X141565952Y-114548619D01*
X141518333Y-114624809D01*
X141470714Y-114662904D01*
X141375476Y-114662904D01*
X141327857Y-114624809D01*
X141280238Y-114548619D01*
X141256428Y-114396238D01*
X141256428Y-114129571D01*
X141280238Y-113977190D01*
X141327857Y-113901000D01*
X141375476Y-113862904D01*
X139327857Y-115912809D02*
X139399285Y-115950904D01*
X139518333Y-115950904D01*
X139565952Y-115912809D01*
X139589761Y-115874714D01*
X139613571Y-115798523D01*
X139613571Y-115722333D01*
X139589761Y-115646142D01*
X139565952Y-115608047D01*
X139518333Y-115569952D01*
X139423095Y-115531857D01*
X139375476Y-115493761D01*
X139351666Y-115455666D01*
X139327857Y-115379476D01*
X139327857Y-115303285D01*
X139351666Y-115227095D01*
X139375476Y-115189000D01*
X139423095Y-115150904D01*
X139542142Y-115150904D01*
X139613571Y-115189000D01*
X139780238Y-115150904D02*
X139899285Y-115950904D01*
X139994523Y-115379476D01*
X140089761Y-115950904D01*
X140208809Y-115150904D01*
X140685000Y-115874714D02*
X140661190Y-115912809D01*
X140589761Y-115950904D01*
X140542142Y-115950904D01*
X140470714Y-115912809D01*
X140423095Y-115836619D01*
X140399285Y-115760428D01*
X140375476Y-115608047D01*
X140375476Y-115493761D01*
X140399285Y-115341380D01*
X140423095Y-115265190D01*
X140470714Y-115189000D01*
X140542142Y-115150904D01*
X140589761Y-115150904D01*
X140661190Y-115189000D01*
X140685000Y-115227095D01*
X141137380Y-115950904D02*
X140899285Y-115950904D01*
X140899285Y-115150904D01*
X141304047Y-115950904D02*
X141304047Y-115150904D01*
X141589761Y-115950904D02*
X141375476Y-115493761D01*
X141589761Y-115150904D02*
X141304047Y-115608047D01*
X139923095Y-117238904D02*
X139923095Y-116438904D01*
X140208809Y-117238904D01*
X140208809Y-116438904D01*
X140732619Y-117238904D02*
X140565952Y-116857952D01*
X140446904Y-117238904D02*
X140446904Y-116438904D01*
X140637380Y-116438904D01*
X140685000Y-116477000D01*
X140708809Y-116515095D01*
X140732619Y-116591285D01*
X140732619Y-116705571D01*
X140708809Y-116781761D01*
X140685000Y-116819857D01*
X140637380Y-116857952D01*
X140446904Y-116857952D01*
X140923095Y-117200809D02*
X140994523Y-117238904D01*
X141113571Y-117238904D01*
X141161190Y-117200809D01*
X141185000Y-117162714D01*
X141208809Y-117086523D01*
X141208809Y-117010333D01*
X141185000Y-116934142D01*
X141161190Y-116896047D01*
X141113571Y-116857952D01*
X141018333Y-116819857D01*
X140970714Y-116781761D01*
X140946904Y-116743666D01*
X140923095Y-116667476D01*
X140923095Y-116591285D01*
X140946904Y-116515095D01*
X140970714Y-116477000D01*
X141018333Y-116438904D01*
X141137380Y-116438904D01*
X141208809Y-116477000D01*
X141351666Y-116438904D02*
X141637380Y-116438904D01*
X141494523Y-117238904D02*
X141494523Y-116438904D01*
X140827857Y-117803095D02*
X140851666Y-117765000D01*
X140899285Y-117726904D01*
X141018333Y-117726904D01*
X141065952Y-117765000D01*
X141089761Y-117803095D01*
X141113571Y-117879285D01*
X141113571Y-117955476D01*
X141089761Y-118069761D01*
X140804047Y-118526904D01*
X141113571Y-118526904D01*
X141304047Y-117803095D02*
X141327857Y-117765000D01*
X141375476Y-117726904D01*
X141494523Y-117726904D01*
X141542142Y-117765000D01*
X141565952Y-117803095D01*
X141589761Y-117879285D01*
X141589761Y-117955476D01*
X141565952Y-118069761D01*
X141280238Y-118526904D01*
X141589761Y-118526904D01*
X140827857Y-119091095D02*
X140851666Y-119053000D01*
X140899285Y-119014904D01*
X141018333Y-119014904D01*
X141065952Y-119053000D01*
X141089761Y-119091095D01*
X141113571Y-119167285D01*
X141113571Y-119243476D01*
X141089761Y-119357761D01*
X140804047Y-119814904D01*
X141113571Y-119814904D01*
X141589761Y-119814904D02*
X141304047Y-119814904D01*
X141446904Y-119814904D02*
X141446904Y-119014904D01*
X141399285Y-119129190D01*
X141351666Y-119205380D01*
X141304047Y-119243476D01*
X140827857Y-120379095D02*
X140851666Y-120341000D01*
X140899285Y-120302904D01*
X141018333Y-120302904D01*
X141065952Y-120341000D01*
X141089761Y-120379095D01*
X141113571Y-120455285D01*
X141113571Y-120531476D01*
X141089761Y-120645761D01*
X140804047Y-121102904D01*
X141113571Y-121102904D01*
X141423095Y-120302904D02*
X141470714Y-120302904D01*
X141518333Y-120341000D01*
X141542142Y-120379095D01*
X141565952Y-120455285D01*
X141589761Y-120607666D01*
X141589761Y-120798142D01*
X141565952Y-120950523D01*
X141542142Y-121026714D01*
X141518333Y-121064809D01*
X141470714Y-121102904D01*
X141423095Y-121102904D01*
X141375476Y-121064809D01*
X141351666Y-121026714D01*
X141327857Y-120950523D01*
X141304047Y-120798142D01*
X141304047Y-120607666D01*
X141327857Y-120455285D01*
X141351666Y-120379095D01*
X141375476Y-120341000D01*
X141423095Y-120302904D01*
X139565952Y-122086142D02*
X139946904Y-122086142D01*
X139756428Y-122390904D02*
X139756428Y-121781380D01*
X140137380Y-121590904D02*
X140446904Y-121590904D01*
X140280238Y-121895666D01*
X140351666Y-121895666D01*
X140399285Y-121933761D01*
X140423095Y-121971857D01*
X140446904Y-122048047D01*
X140446904Y-122238523D01*
X140423095Y-122314714D01*
X140399285Y-122352809D01*
X140351666Y-122390904D01*
X140208809Y-122390904D01*
X140161190Y-122352809D01*
X140137380Y-122314714D01*
X140661190Y-122314714D02*
X140685000Y-122352809D01*
X140661190Y-122390904D01*
X140637380Y-122352809D01*
X140661190Y-122314714D01*
X140661190Y-122390904D01*
X140851666Y-121590904D02*
X141161190Y-121590904D01*
X140994523Y-121895666D01*
X141065952Y-121895666D01*
X141113571Y-121933761D01*
X141137380Y-121971857D01*
X141161190Y-122048047D01*
X141161190Y-122238523D01*
X141137380Y-122314714D01*
X141113571Y-122352809D01*
X141065952Y-122390904D01*
X140923095Y-122390904D01*
X140875476Y-122352809D01*
X140851666Y-122314714D01*
X141304047Y-121590904D02*
X141470714Y-122390904D01*
X141637380Y-121590904D01*
D11*
X142332380Y-67988095D02*
X141332380Y-67988095D01*
X141332380Y-67750000D01*
X141380000Y-67607142D01*
X141475238Y-67511904D01*
X141570476Y-67464285D01*
X141760952Y-67416666D01*
X141903809Y-67416666D01*
X142094285Y-67464285D01*
X142189523Y-67511904D01*
X142284761Y-67607142D01*
X142332380Y-67750000D01*
X142332380Y-67988095D01*
X141427619Y-67035714D02*
X141380000Y-66988095D01*
X141332380Y-66892857D01*
X141332380Y-66654761D01*
X141380000Y-66559523D01*
X141427619Y-66511904D01*
X141522857Y-66464285D01*
X141618095Y-66464285D01*
X141760952Y-66511904D01*
X142332380Y-67083333D01*
X142332380Y-66464285D01*
X142652380Y-71321904D02*
X141652380Y-71321904D01*
X142652380Y-70750476D02*
X142080952Y-71179047D01*
X141652380Y-70750476D02*
X142223809Y-71321904D01*
X140452380Y-67988095D02*
X139452380Y-67988095D01*
X139452380Y-67750000D01*
X139500000Y-67607142D01*
X139595238Y-67511904D01*
X139690476Y-67464285D01*
X139880952Y-67416666D01*
X140023809Y-67416666D01*
X140214285Y-67464285D01*
X140309523Y-67511904D01*
X140404761Y-67607142D01*
X140452380Y-67750000D01*
X140452380Y-67988095D01*
X140452380Y-66464285D02*
X140452380Y-67035714D01*
X140452380Y-66750000D02*
X139452380Y-66750000D01*
X139595238Y-66845238D01*
X139690476Y-66940476D01*
X139738095Y-67035714D01*
X136652380Y-71321904D02*
X135652380Y-71321904D01*
X136652380Y-70750476D02*
X136080952Y-71179047D01*
X135652380Y-70750476D02*
X136223809Y-71321904D01*
X155082380Y-67166666D02*
X154606190Y-67500000D01*
X155082380Y-67738095D02*
X154082380Y-67738095D01*
X154082380Y-67357142D01*
X154130000Y-67261904D01*
X154177619Y-67214285D01*
X154272857Y-67166666D01*
X154415714Y-67166666D01*
X154510952Y-67214285D01*
X154558571Y-67261904D01*
X154606190Y-67357142D01*
X154606190Y-67738095D01*
X154177619Y-66785714D02*
X154130000Y-66738095D01*
X154082380Y-66642857D01*
X154082380Y-66404761D01*
X154130000Y-66309523D01*
X154177619Y-66261904D01*
X154272857Y-66214285D01*
X154368095Y-66214285D01*
X154510952Y-66261904D01*
X155082380Y-66833333D01*
X155082380Y-66214285D01*
X152822380Y-67166666D02*
X152346190Y-67500000D01*
X152822380Y-67738095D02*
X151822380Y-67738095D01*
X151822380Y-67357142D01*
X151870000Y-67261904D01*
X151917619Y-67214285D01*
X152012857Y-67166666D01*
X152155714Y-67166666D01*
X152250952Y-67214285D01*
X152298571Y-67261904D01*
X152346190Y-67357142D01*
X152346190Y-67738095D01*
X152822380Y-66214285D02*
X152822380Y-66785714D01*
X152822380Y-66500000D02*
X151822380Y-66500000D01*
X151965238Y-66595238D01*
X152060476Y-66690476D01*
X152108095Y-66785714D01*
D13*
X141120000Y-53667071D02*
X141120000Y-53270000D01*
X150390000Y-53270000D02*
X150390000Y-50610000D01*
X152040000Y-53667071D02*
X152040000Y-53270000D01*
X146960000Y-53667071D02*
X146960000Y-53270000D01*
X140230000Y-58520000D02*
X140230000Y-57250000D01*
X147850000Y-53270000D02*
X147850000Y-50610000D01*
X149500000Y-53667071D02*
X149500000Y-53270000D01*
X146200000Y-56207071D02*
X146200000Y-55752929D01*
X148740000Y-53667071D02*
X148740000Y-53270000D01*
X141880000Y-53667071D02*
X141880000Y-53270000D01*
X141880000Y-56140000D02*
X141880000Y-55752929D01*
X152990000Y-50610000D02*
X140170000Y-50610000D01*
X145310000Y-53270000D02*
X145310000Y-50610000D01*
X141500000Y-58520000D02*
X140230000Y-58520000D01*
X151280000Y-56207071D02*
X151280000Y-55752929D01*
X141120000Y-56140000D02*
X141120000Y-55752929D01*
X142770000Y-53270000D02*
X142770000Y-50610000D01*
X144420000Y-53667071D02*
X144420000Y-53270000D01*
X149500000Y-56207071D02*
X149500000Y-55752929D01*
X146960000Y-56207071D02*
X146960000Y-55752929D01*
X151280000Y-53667071D02*
X151280000Y-53270000D01*
X143660000Y-53667071D02*
X143660000Y-53270000D01*
X140170000Y-50610000D02*
X140170000Y-53270000D01*
X146200000Y-53667071D02*
X146200000Y-53270000D01*
X143660000Y-56207071D02*
X143660000Y-55752929D01*
X152040000Y-56207071D02*
X152040000Y-55752929D01*
X152990000Y-53270000D02*
X152990000Y-50610000D01*
X148740000Y-56207071D02*
X148740000Y-55752929D01*
X144420000Y-56207071D02*
X144420000Y-55752929D01*
X140170000Y-53270000D02*
X152990000Y-53270000D01*
X113330000Y-120730000D02*
X110670000Y-120730000D01*
X113330000Y-120730000D02*
X113330000Y-105430000D01*
X113330000Y-123330000D02*
X112000000Y-123330000D01*
X113330000Y-105430000D02*
X110670000Y-105430000D01*
X113330000Y-122000000D02*
X113330000Y-123330000D01*
X110670000Y-120730000D02*
X110670000Y-105430000D01*
X183330000Y-120730000D02*
X180670000Y-120730000D01*
X183330000Y-120730000D02*
X183330000Y-105430000D01*
X183330000Y-123330000D02*
X182000000Y-123330000D01*
X183330000Y-105430000D02*
X180670000Y-105430000D01*
X183330000Y-122000000D02*
X183330000Y-123330000D01*
X180670000Y-120730000D02*
X180670000Y-105430000D01*
X171670000Y-69870000D02*
X174330000Y-69870000D01*
X171670000Y-67270000D02*
X174330000Y-67270000D01*
X174330000Y-67270000D02*
X174330000Y-69870000D01*
X171670000Y-64670000D02*
X173000000Y-64670000D01*
X171670000Y-67270000D02*
X171670000Y-69870000D01*
X171670000Y-66000000D02*
X171670000Y-64670000D01*
X142880000Y-69370000D02*
X145120000Y-69370000D01*
X142880000Y-68530000D02*
X145120000Y-68530000D01*
X144000000Y-64480000D02*
X144000000Y-65130000D01*
X144000000Y-70020000D02*
X144000000Y-69370000D01*
X142880000Y-65130000D02*
X142880000Y-69370000D01*
X142880000Y-68770000D02*
X145120000Y-68770000D01*
X142880000Y-68650000D02*
X145120000Y-68650000D01*
X145120000Y-69370000D02*
X145120000Y-65130000D01*
X145120000Y-65130000D02*
X142880000Y-65130000D01*
X134250000Y-84500000D02*
X134250000Y-80000000D01*
X127750000Y-80000000D02*
X127750000Y-84500000D01*
X130250000Y-85750000D02*
X131750000Y-85750000D01*
X131750000Y-78750000D02*
X130250000Y-78750000D01*
X164250000Y-85750000D02*
X165750000Y-85750000D01*
X161750000Y-80000000D02*
X161750000Y-84500000D01*
X168250000Y-84500000D02*
X168250000Y-80000000D01*
X165750000Y-78750000D02*
X164250000Y-78750000D01*
X139120000Y-69370000D02*
X139120000Y-65130000D01*
X138000000Y-70020000D02*
X138000000Y-69370000D01*
X136880000Y-68650000D02*
X139120000Y-68650000D01*
X139120000Y-65130000D02*
X136880000Y-65130000D01*
X136880000Y-68770000D02*
X139120000Y-68770000D01*
X136880000Y-69370000D02*
X139120000Y-69370000D01*
X138000000Y-64480000D02*
X138000000Y-65130000D01*
X136880000Y-65130000D02*
X136880000Y-69370000D01*
X136880000Y-68530000D02*
X139120000Y-68530000D01*
X120330000Y-70330000D02*
X119000000Y-70330000D01*
X120330000Y-65130000D02*
X117670000Y-65130000D01*
X117670000Y-67730000D02*
X117670000Y-65130000D01*
X120330000Y-69000000D02*
X120330000Y-70330000D01*
X120330000Y-67730000D02*
X117670000Y-67730000D01*
X120330000Y-67730000D02*
X120330000Y-65130000D01*
X158040000Y-70270000D02*
X158370000Y-70270000D01*
X155630000Y-70270000D02*
X155630000Y-63730000D01*
X155960000Y-70270000D02*
X155630000Y-70270000D01*
X155630000Y-63730000D02*
X155960000Y-63730000D01*
X158370000Y-63730000D02*
X158040000Y-63730000D01*
X158370000Y-70270000D02*
X158370000Y-63730000D01*
X148630000Y-63730000D02*
X148630000Y-70270000D01*
X148630000Y-70270000D02*
X148960000Y-70270000D01*
X151370000Y-63730000D02*
X151370000Y-70270000D01*
X148960000Y-63730000D02*
X148630000Y-63730000D01*
X151370000Y-70270000D02*
X151040000Y-70270000D01*
X151040000Y-63730000D02*
X151370000Y-63730000D01*
X148250000Y-78750000D02*
X146750000Y-78750000D01*
X150750000Y-84500000D02*
X150750000Y-80000000D01*
X144250000Y-80000000D02*
X144250000Y-84500000D01*
X146750000Y-85750000D02*
X148250000Y-85750000D01*
X148630000Y-121030000D02*
X148630000Y-113475000D01*
X146936529Y-121030000D02*
X146793471Y-121030000D01*
X145922470Y-122485000D02*
X145100000Y-122485000D01*
X148630000Y-113475000D02*
X147807530Y-113475000D01*
X148630000Y-122550000D02*
X147500000Y-122550000D01*
X148630000Y-121790000D02*
X148630000Y-122550000D01*
X147192470Y-113475000D02*
X146537530Y-113475000D01*
X148630000Y-121030000D02*
X148063471Y-121030000D01*
X145100000Y-122485000D02*
X145100000Y-113475000D01*
X146740000Y-122485000D02*
X146537530Y-122485000D01*
X146740000Y-122353471D02*
X146740000Y-122485000D01*
X145922470Y-113475000D02*
X145100000Y-113475000D01*
X146740000Y-121083471D02*
X146740000Y-121226529D01*
%LPC*%
D14*
X141500000Y-57250000D03*
D15*
X141500000Y-54710000D03*
X144040000Y-57250000D03*
X144040000Y-54710000D03*
X146580000Y-57250000D03*
X146580000Y-54710000D03*
X149120000Y-57250000D03*
X149120000Y-54710000D03*
X151660000Y-57250000D03*
X151660000Y-54710000D03*
D14*
X112000000Y-122000000D03*
D15*
X112000000Y-119460000D03*
X112000000Y-116920000D03*
X112000000Y-114380000D03*
X112000000Y-111840000D03*
X112000000Y-109300000D03*
X112000000Y-106760000D03*
D14*
X182000000Y-122000000D03*
D15*
X182000000Y-119460000D03*
X182000000Y-116920000D03*
X182000000Y-114380000D03*
X182000000Y-111840000D03*
X182000000Y-109300000D03*
X182000000Y-106760000D03*
D14*
X173000000Y-66000000D03*
D15*
X173000000Y-68540000D03*
D16*
X144000000Y-71060000D03*
D17*
X144000000Y-63440000D03*
D18*
X133250000Y-79000000D03*
X133250000Y-85500000D03*
X128750000Y-85500000D03*
X128750000Y-79000000D03*
X167250000Y-79000000D03*
X167250000Y-85500000D03*
X162750000Y-85500000D03*
X162750000Y-79000000D03*
D16*
X138000000Y-71060000D03*
D17*
X138000000Y-63440000D03*
D14*
X119000000Y-69000000D03*
D15*
X119000000Y-66460000D03*
D19*
X157000000Y-70810000D03*
D17*
X157000000Y-63190000D03*
D19*
X150000000Y-63190000D03*
D17*
X150000000Y-70810000D03*
D18*
X145250000Y-85500000D03*
X145250000Y-79000000D03*
X149750000Y-85500000D03*
X149750000Y-79000000D03*
D20*
X146230000Y-114170000D03*
X147500000Y-114170000D03*
X146230000Y-115440000D03*
X147500000Y-115440000D03*
X146230000Y-116710000D03*
X147500000Y-116710000D03*
X146230000Y-117980000D03*
X147500000Y-117980000D03*
X146230000Y-119250000D03*
X147500000Y-119250000D03*
X146230000Y-120520000D03*
X147500000Y-120520000D03*
X146230000Y-121790000D03*
D21*
X147500000Y-121790000D03*
M02*
